<svg width="201" height="49" viewBox="0 0 201 49" fill="none" xmlns="http://www.w3.org/2000/svg">
<path d="M127.715 40.1497C127.588 40.0878 127.457 40.0328 127.324 39.9849C127.055 39.9103 126.771 39.8496 126.486 39.7887C126.471 39.6387 126.471 39.4875 126.486 39.3374C126.695 38.3151 126.785 37.2477 127.055 36.2567C127.533 36.2862 127.952 36.3314 128.388 36.3176C128.739 36.3235 129.084 36.2175 129.372 36.0148C129.66 35.8121 129.876 35.5231 129.99 35.1893C130.2 34.6791 130.35 34.1375 130.544 33.6195C130.611 33.3885 130.584 33.1401 130.469 32.9288C130.079 31.7103 129.676 30.5095 129.271 29.3065C127.903 25.1132 126.501 20.918 125.123 16.7248C125.049 16.4991 124.988 16.2735 124.898 16.0027C125.01 15.9578 125.125 15.9223 125.243 15.8967H128.986C129.073 15.9075 129.158 15.9279 129.24 15.9575C129.301 16.138 129.375 16.3343 129.435 16.5286C130.438 20.0154 131.427 23.5043 132.43 26.9911C132.468 27.2573 132.571 27.5101 132.729 27.727C132.97 27.5916 132.97 27.3522 133.028 27.1716C133.388 25.9688 133.718 24.7659 134.062 23.5788L136.083 16.5893C136.144 16.3794 136.218 16.1832 136.293 15.9731C136.389 15.9376 136.49 15.9126 136.592 15.8985C137.79 15.8985 138.988 15.8828 140.186 15.8828C140.302 15.8894 140.417 15.9045 140.531 15.928C140.695 16.1988 140.53 16.4244 140.47 16.6343C139.856 18.4828 139.242 20.3311 138.629 22.1658C137.147 26.6299 135.659 31.0946 134.166 35.5599C134.005 36.0618 133.815 36.5538 133.597 37.0335C133.296 37.772 132.812 38.4208 132.191 38.9182C131.569 39.4155 130.831 39.7449 130.047 39.8748C129.735 39.8885 129.431 39.9817 129.164 40.1456L127.715 40.1497Z" fill="#FC4F00"/>
<path d="M179.555 21.1362C179.569 23.3693 179.136 25.5826 178.283 27.6449C177.663 29.1133 176.703 30.4117 175.482 31.432C174.17 32.4922 172.588 33.1594 170.915 33.357C169.633 33.5212 168.331 33.4346 167.082 33.1019C165.048 32.5539 163.281 31.2826 162.111 29.5247C161.243 28.2499 160.623 26.8218 160.283 25.3157C159.607 22.4503 159.642 19.4617 160.387 16.6133C160.743 15.2113 161.352 13.8866 162.183 12.7045C162.826 11.7579 163.649 10.9489 164.605 10.3243C165.561 9.6998 166.632 9.27224 167.754 9.06649C169.629 8.65025 171.587 8.83897 173.348 9.60574C175.109 10.3725 176.585 11.6781 177.563 13.3364C178.421 14.7886 178.999 16.3893 179.27 18.0556C179.445 19.0734 179.54 20.1034 179.555 21.1362ZM174.823 21.1656C174.749 20.3533 174.704 19.5428 174.598 18.7304C174.468 17.7272 174.174 16.7522 173.73 15.844C173.382 15.1015 172.876 14.4445 172.249 13.919C171.494 13.3156 170.553 12.9971 169.588 13.019C168.624 13.0409 167.698 13.4017 166.971 14.0386C166.509 14.4578 166.12 14.9503 165.818 15.4965C165.275 16.5156 164.924 17.6265 164.784 18.7734C164.544 20.3426 164.544 21.9392 164.784 23.5083C164.923 24.5335 165.216 25.5316 165.651 26.4693C166.012 27.2886 166.58 27.9989 167.299 28.5296C167.714 28.8385 168.186 29.0615 168.687 29.1854C169.188 29.3094 169.709 29.3319 170.22 29.2517C170.801 29.1719 171.359 28.9716 171.859 28.6635C172.359 28.3555 172.79 27.9463 173.124 27.4621C173.591 26.8206 173.945 26.104 174.172 25.3429C174.598 23.9922 174.818 22.5844 174.825 21.1675L174.823 21.1656Z" fill="#FC4F00"/>
<path d="M93.5126 15.9639C94.7613 15.8256 96.0208 15.8157 97.2714 15.9344C97.4962 16.1149 97.4962 16.3995 97.5704 16.6408C98.2741 19.2565 98.9642 21.8878 99.6521 24.5015C99.8475 25.2687 100.057 26.034 100.25 26.8012C100.295 26.9817 100.385 27.1466 100.446 27.3271C100.686 27.2525 100.686 27.072 100.715 26.9051C101.046 25.4473 101.39 24.0049 101.718 22.5451C102.168 20.5829 102.631 18.6069 103.086 16.6584C103.114 16.5168 103.15 16.3766 103.192 16.2385C103.266 15.952 103.342 15.8931 103.641 15.8774C103.761 15.8647 103.881 15.8594 104.001 15.8617H106.876C107.087 15.8279 107.303 15.8652 107.49 15.9677C107.416 16.629 103.223 32.3523 102.953 32.9842C102.25 33.0369 101.546 33.0519 100.842 33.0293C100.122 33.045 99.4052 33.0293 98.6702 33.0293C98.5779 32.8254 98.5027 32.614 98.4455 32.3974C97.5776 29.0459 96.7076 25.7082 95.8398 22.3567C95.7792 22.1468 95.7343 21.9368 95.6756 21.7248C95.6301 21.6342 95.5751 21.5486 95.5115 21.4697C95.3474 21.6223 95.2505 21.834 95.2418 22.0584C94.8822 23.4104 94.5537 24.7485 94.2098 26.1025C93.6861 28.1766 93.1465 30.2369 92.607 32.311C92.5464 32.5209 92.4722 32.7171 92.4116 32.9115C90.9735 33.0577 89.5255 33.078 88.0839 32.9723C87.9164 32.7733 87.8164 32.5258 87.7985 32.2659C87.3039 30.4626 86.8407 28.6436 86.3461 26.8403C85.4625 23.5045 84.5653 20.1511 83.6798 16.8134C83.5722 16.5458 83.5165 16.2601 83.5156 15.9715C83.58 15.9335 83.651 15.9082 83.7249 15.8969C84.9232 15.8812 86.1213 15.8812 87.3196 15.8812C87.4468 15.8943 87.5724 15.9193 87.695 15.9559C88.0703 17.2038 88.3087 18.4812 88.5941 19.7292C88.8794 20.9771 89.1806 22.2545 89.4619 23.5163C89.7432 24.778 90.0484 26.0416 90.3455 27.2739C90.5547 27.3347 90.5996 27.2287 90.6309 27.1091L91.3503 24.3129C91.9933 21.8033 92.6228 19.2916 93.2678 16.7662C93.3405 16.4898 93.4384 16.2209 93.5126 15.9639Z" fill="#FC4F00"/>
<path d="M60.1953 32.9505C59.6264 33.0251 56.7217 33.0701 55.7482 33.0251C55.6616 33.0137 55.5765 32.9933 55.4941 32.9643C55.4783 32.8896 55.4492 32.8289 55.4492 32.7995C57.7402 24.9977 60.0409 17.1913 62.3514 9.38028C62.4686 9.34396 62.589 9.31898 62.711 9.30566H67.8168C67.868 9.30954 67.9185 9.31942 67.9674 9.33513C68.1922 9.48627 68.2079 9.74125 68.2664 9.967C68.9545 12.2373 69.6131 14.5213 70.2877 16.8074C71.8005 21.9327 73.318 27.0633 74.8402 32.1991C74.9405 32.4373 74.9961 32.6921 75.0044 32.9506C73.44 33.0739 71.8689 33.0838 70.3032 32.9801C70.0624 32.3124 69.8665 31.6294 69.7167 30.9354C69.5212 30.2447 69.3413 29.5619 69.1636 28.8457C68.991 28.8082 68.8159 28.7832 68.6398 28.771H61.7512C61.6401 28.7765 61.5296 28.7916 61.421 28.8162C61.2496 29.0025 61.1445 29.2405 61.122 29.4931C60.8815 30.4251 60.6431 31.3572 60.4026 32.2736C60.3456 32.4599 60.2714 32.6954 60.1953 32.9505ZM65.2424 13.6657C65.1976 13.7403 65.1231 13.7853 65.1076 13.8462C64.1791 17.3645 63.2507 20.8965 62.3378 24.4128C62.3346 24.4892 62.3445 24.5655 62.3671 24.6384C62.4788 24.6732 62.5944 24.6936 62.7112 24.6993C64.4705 24.6993 66.2453 24.6836 68.0125 24.6698C68.0418 24.6698 68.0867 24.609 68.163 24.5502C68.1566 24.4176 68.1363 24.286 68.1024 24.1577C67.907 23.3905 67.7116 22.6252 67.5042 21.858C66.8299 19.3071 66.1711 16.7562 65.4987 14.2052C65.4836 13.9989 65.3921 13.8058 65.2422 13.6638L65.2424 13.6657Z" fill="#FC4F00"/>
<path d="M122.759 32.9586C121.423 33.0563 120.082 33.0563 118.746 32.9586C118.492 32.523 118.807 31.9658 118.492 31.485C118.328 31.6362 118.177 31.7558 118.042 31.8912C117.488 32.4264 116.829 32.8404 116.108 33.1068C115.386 33.3733 114.617 33.4866 113.849 33.4394C112.651 33.4098 111.502 32.9586 110.601 32.1645C109.701 31.3704 109.107 30.284 108.923 29.095C108.711 28.0268 108.763 26.9225 109.074 25.879C109.299 25.0234 109.757 24.2479 110.398 23.6398C111.038 23.0317 111.835 22.6151 112.698 22.4372C114.035 22.1163 115.441 22.2488 116.696 22.8139C117.226 23.0416 117.709 23.3678 118.119 23.7754C118.238 23.8951 118.359 24.0011 118.523 24.1522C118.582 24.0334 118.622 23.9064 118.643 23.7754C118.658 23.0985 118.658 22.4234 118.643 21.7622C118.626 21.4511 118.571 21.1433 118.479 20.8458C118.291 20.2825 117.931 19.7931 117.449 19.4474C116.968 19.1017 116.39 18.9175 115.799 18.9209C114.399 18.8407 113.017 19.2676 111.905 20.1237C111.786 20.214 111.68 20.3041 111.561 20.3944C111.471 20.4691 111.365 20.5456 111.246 20.6358C111.171 20.5878 111.105 20.5267 111.051 20.4553C110.617 19.6703 110.196 18.8855 109.778 18.1006C109.747 18.0224 109.722 17.9417 109.704 17.8593C109.808 17.7533 109.929 17.6179 110.048 17.5139C111.127 16.6276 112.4 16.0098 113.762 15.7106C115.442 15.3021 117.198 15.323 118.868 15.7714C119.281 15.8937 119.683 16.0547 120.066 16.2521C120.647 16.5468 121.162 16.9574 121.579 17.4588C121.996 17.9602 122.307 18.5418 122.492 19.168C122.693 19.7637 122.8 20.3875 122.807 21.0165V32.4857C122.804 32.6348 122.775 32.7859 122.759 32.9586ZM118.64 27.8784C118.64 27.6685 118.625 27.4429 118.64 27.2329C118.649 27.0296 118.615 26.8268 118.541 26.6377C118.466 26.4486 118.352 26.2776 118.206 26.136C117.903 25.7921 117.533 25.5145 117.118 25.3204C116.703 25.1263 116.253 25.0198 115.796 25.0077C115.195 24.9545 114.594 25.115 114.099 25.4611C113.604 25.8072 113.246 26.317 113.087 26.9013C112.9 27.5238 112.9 28.188 113.087 28.8106C113.199 29.2155 113.411 29.5852 113.705 29.8848C113.998 30.1845 114.363 30.4043 114.764 30.5236C115.386 30.7031 116.046 30.7008 116.666 30.5169C117.287 30.333 117.842 29.9752 118.267 29.4855C118.39 29.3552 118.486 29.2009 118.547 29.0322C118.609 28.8635 118.636 28.6839 118.626 28.5044C118.64 28.2904 118.64 28.0805 118.64 27.8705L118.64 27.8784Z" fill="#FC4F00"/>
<path d="M186.892 32.9489C185.556 33.0422 184.216 33.052 182.879 32.9784C182.836 32.856 182.801 32.7308 182.776 32.6036C182.76 32.3937 182.76 32.168 182.76 31.9581V16.9567C182.76 16.6408 182.776 16.3405 182.776 15.9952C182.915 15.9383 183.061 15.8982 183.209 15.8756C184.287 15.8599 185.365 15.8599 186.443 15.8756C186.564 15.8756 186.667 15.9207 186.818 15.9364C187.027 16.5683 186.789 17.2295 186.968 17.8457C187.208 17.9203 187.282 17.7397 187.388 17.6201C187.979 16.9525 188.697 16.4107 189.5 16.0267C190.806 15.3949 192.296 15.261 193.693 15.6499C194.293 15.7881 194.846 16.0835 195.296 16.5061C195.746 16.9287 196.076 17.4633 196.253 18.0557C196.457 18.6713 196.558 19.3164 196.553 19.9649V32.1563C196.553 32.4114 196.539 32.6822 196.539 32.9824C196.078 33.047 195.612 33.0673 195.147 33.0433C194.713 33.059 194.277 33.0433 193.859 33.0433C193.41 33.0657 192.959 33.0506 192.512 32.9981C192.437 32.709 192.412 32.4089 192.438 32.1111V22.0096C192.435 21.6473 192.41 21.2855 192.362 20.9264C192.333 20.6368 192.244 20.3564 192.1 20.104C191.956 19.8515 191.759 19.6328 191.525 19.4623C191.29 19.2917 191.021 19.1733 190.737 19.1148C190.453 19.0564 190.16 19.0592 189.877 19.1231C189.179 19.1897 188.525 19.492 188.02 19.9806C187.811 20.1768 187.616 20.3868 187.42 20.5968C187.081 20.9716 186.898 21.4638 186.912 21.9704C186.941 25.3376 186.926 28.7048 186.926 32.072C186.908 32.3504 186.892 32.635 186.892 32.9489Z" fill="#FC4F00"/>
<path d="M152.468 20.3395C152.288 20.1884 152.153 20.0982 152.034 19.9941C151.061 19.2022 149.869 18.7301 148.619 18.6421C147.973 18.5713 147.321 18.6971 146.747 19.0032C146.529 19.1065 146.341 19.2648 146.202 19.4625C146.063 19.6602 145.977 19.8907 145.953 20.1315C145.919 20.335 145.937 20.5438 146.006 20.7383C146.074 20.9329 146.19 21.1069 146.344 21.2441C146.612 21.4848 146.915 21.6832 147.243 21.8327C147.767 22.0741 148.322 22.2389 148.86 22.4332C149.642 22.7197 150.424 22.9886 151.205 23.3044C151.912 23.6032 152.557 24.031 153.107 24.5661C153.92 25.3669 154.401 26.4462 154.454 27.5879C154.524 28.2855 154.457 28.9899 154.259 29.662C153.888 30.8499 153.079 31.8504 151.997 32.4581C151.098 32.9645 150.103 33.2766 149.077 33.3745C147.262 33.5919 145.422 33.321 143.746 32.5895C142.905 32.2458 142.145 31.7284 141.516 31.0708C141.98 30.0551 142.552 29.0926 143.222 28.2C143.357 28.306 143.492 28.3962 143.613 28.5003C144.683 29.401 145.987 29.9751 147.372 30.1545C147.991 30.2455 148.623 30.1835 149.213 29.974C149.485 29.879 149.739 29.7369 149.962 29.5541C150.275 29.2808 150.467 28.894 150.496 28.4787C150.525 28.0633 150.388 27.6535 150.116 27.3394C150.09 27.31 150.064 27.2817 150.036 27.2543C149.718 26.9617 149.347 26.732 148.944 26.5774C148.357 26.3518 147.771 26.1575 147.184 25.9456C146.555 25.7199 145.912 25.51 145.298 25.2392C144.796 25.0127 144.315 24.7408 143.861 24.4268C143.318 24.047 142.868 23.5476 142.547 22.9668C142.225 22.386 142.039 21.739 142.005 21.0753C141.884 19.9873 142.131 18.8901 142.707 17.9604C143.283 17.0307 144.154 16.3226 145.179 15.95C145.958 15.6403 146.783 15.4626 147.621 15.4241C149.227 15.3017 150.836 15.6184 152.277 16.3404C152.785 16.6112 153.254 16.9409 153.729 17.2568C153.85 17.3558 153.96 17.4669 154.057 17.5884C153.545 18.5519 153.006 19.4231 152.468 20.3395Z" fill="#FC4F00"/>
<path d="M81.1621 9.29199C81.2969 10.0769 81.342 25.6158 81.2521 32.3795C81.2521 32.56 81.2227 32.7563 81.2072 32.9801C80.5355 33.045 79.8603 33.0653 79.1859 33.0409C78.5428 33.0566 77.8976 33.0409 77.2312 33.0409C77.184 32.8998 77.1538 32.7536 77.1412 32.6053C77.1255 32.4091 77.1412 32.2128 77.1412 32.0343V10.33C77.1079 10.0076 77.133 9.68187 77.2154 9.36851C77.6368 9.30847 78.0634 9.29334 78.488 9.32336C78.9375 9.30767 79.4009 9.32336 79.8562 9.32336C80.263 9.29199 80.6968 9.29199 81.1621 9.29199Z" fill="#FC4F00"/>
<path d="M29.5963 24.5865V40.4453C29.5963 40.716 29.5963 40.9711 29.5806 41.2419C29.5422 41.7627 29.3068 42.2491 28.9226 42.6012C28.5384 42.9532 28.0346 43.1444 27.5144 43.1355C26.9936 43.1342 26.4925 42.935 26.1121 42.5778C25.7317 42.2207 25.5001 41.7321 25.464 41.2105C25.4483 41.0143 25.464 40.8181 25.464 40.6395V7.82715C25.505 7.31175 25.7308 6.82877 26.0997 6.46789C26.4685 6.10702 26.9553 5.89277 27.4696 5.86493C27.9996 5.85145 28.5148 6.04151 28.91 6.39631C29.3052 6.75111 29.5507 7.24392 29.5963 7.77419C29.5963 8.04498 29.6121 8.30008 29.6121 8.57087C29.5963 13.9173 29.5911 19.2558 29.5963 24.5865Z" fill="#FC4F00"/>
<path d="M22.6351 24.6314V36.601C22.6432 36.8635 22.6282 37.1261 22.5903 37.3859C22.5135 37.8974 22.2509 38.3623 21.8531 38.6912C21.4553 39.02 20.9504 39.1896 20.4355 39.1672C19.9207 39.1448 19.4323 38.932 19.0644 38.5698C18.6964 38.2076 18.4749 37.7216 18.4425 37.2054C18.4267 37.0405 18.4267 36.8737 18.4267 36.6952V12.5402C18.4114 12.1793 18.457 11.8184 18.5615 11.4727C18.7105 11.0376 18.9979 10.6636 19.3793 10.4083C19.7607 10.1531 20.2151 10.0306 20.6725 10.0599C21.1052 10.0803 21.5198 10.2406 21.8544 10.5167C22.189 10.7929 22.4258 11.1702 22.5294 11.5924C22.6024 11.9182 22.6378 12.2514 22.6349 12.5853L22.6351 24.6314Z" fill="#FC4F00"/>
<path d="M43.5844 24.4668V34.4251C43.5844 34.7567 43.5686 35.1021 43.5395 35.4317C43.4577 35.9358 43.1926 36.3916 42.7954 36.7109C42.3983 37.0302 41.8973 37.1904 41.3894 37.1604C40.8968 37.1323 40.4296 36.9322 40.0687 36.5946C39.7077 36.257 39.4758 35.8032 39.4132 35.312C39.3974 35.1472 39.3974 34.9804 39.3974 34.8018V14.0179C39.3777 13.6825 39.4181 13.3462 39.5167 13.025C39.6787 12.5669 39.9941 12.1795 40.4091 11.929C40.8241 11.6784 41.3129 11.5804 41.7919 11.6515C42.2337 11.7156 42.6425 11.9228 42.9562 12.2416C43.2699 12.5604 43.4713 12.9733 43.5298 13.4175C43.567 13.7267 43.582 14.0382 43.5746 14.3496L43.5844 24.4668Z" fill="#FC4F00"/>
<path d="M36.5914 24.0627V29.1645C36.6015 29.355 36.5962 29.5459 36.5757 29.7355C36.5254 30.2309 36.3011 30.6921 35.9429 31.0366C35.5848 31.381 35.1161 31.5862 34.621 31.6153C34.1256 31.6502 33.6345 31.5033 33.239 31.2019C32.8435 30.9005 32.5705 30.4652 32.4708 29.9769C32.4112 29.695 32.3811 29.4076 32.3809 29.1194V18.959C32.3832 18.6957 32.4081 18.4331 32.4551 18.1741C32.5427 17.6854 32.8026 17.2446 33.1875 16.9326C33.5723 16.6205 34.0562 16.458 34.5506 16.4748C35.0699 16.4921 35.5643 16.7025 35.9378 17.0651C36.3113 17.4277 36.5373 17.9166 36.5719 18.437C36.5876 18.6333 36.5719 18.8295 36.5719 19.008C36.5914 20.7113 36.5914 22.3791 36.5914 24.0627Z" fill="#FC4F00"/>
<path d="M15.6263 24.5981C15.6263 25.4105 15.6421 26.2366 15.6263 27.0489C15.6394 27.5342 15.4812 28.0085 15.1797 28.388C14.8781 28.7675 14.4527 29.0279 13.9785 29.123C13.4394 29.238 12.877 29.1333 12.4148 28.832C11.9526 28.5306 11.6286 28.0574 11.5141 27.5163L11.5076 27.4845C11.4704 27.2458 11.4554 27.004 11.4628 26.7625V22.0727C11.4731 21.5508 11.6809 21.0523 12.0439 20.6784C12.4069 20.3046 12.898 20.0833 13.4175 20.0595C13.9499 20.0317 14.4728 20.2092 14.8791 20.5558C15.2853 20.9023 15.5443 21.3916 15.6029 21.9236C15.6187 22.0884 15.6187 22.2552 15.6187 22.4338V24.5922L15.6263 24.5981Z" fill="#FC4F00"/>
<path d="M8.61764 24.1061V25.3992C8.59121 25.9298 8.36408 26.4303 7.98261 26.7985C7.60114 27.1668 7.09407 27.375 6.56488 27.3808C6.03568 27.3865 5.52423 27.1894 5.1349 26.8295C4.74557 26.4697 4.5077 25.9742 4.46982 25.4443C4.43975 24.5574 4.43975 23.6705 4.46982 22.7835C4.4983 22.3241 4.68125 21.888 4.98875 21.5465C5.29624 21.2051 5.71007 20.9784 6.16254 20.9038C6.62305 20.8169 7.09928 20.8901 7.51283 21.1112C7.92638 21.3323 8.25258 21.6883 8.43773 22.1203C8.53813 22.39 8.59359 22.6744 8.60189 22.9621C8.62933 23.3422 8.63459 23.7235 8.61764 24.1041V24.1061Z" fill="#FC4F00"/>
<path d="M46.411 24.106C46.411 23.6704 46.3952 23.2485 46.411 22.8129C46.4466 22.3194 46.6557 21.8546 47.001 21.5014C47.3463 21.1482 47.8053 20.9296 48.2962 20.8846C48.7871 20.8396 49.278 20.9711 49.6813 21.2556C50.0846 21.5402 50.3741 21.9592 50.4982 22.4381C50.528 22.5562 50.5431 22.6774 50.5431 22.7992C50.5431 23.6861 50.5724 24.5652 50.5431 25.46C50.5201 25.9296 50.3339 26.3762 50.0168 26.7222C49.6996 27.0682 49.2717 27.2916 48.8074 27.3535C48.3194 27.4416 47.8162 27.3484 47.3918 27.0913C46.9673 26.8342 46.6505 26.4308 46.5007 25.9564C46.436 25.7264 46.4012 25.489 46.3971 25.25C46.3814 24.8752 46.3971 24.4985 46.4129 24.108L46.411 24.106Z" fill="#FC4F00"/>
</svg>
