<svg width="186" height="146" viewBox="0 0 186 146" fill="none" xmlns="http://www.w3.org/2000/svg">
<path fill-rule="evenodd" clip-rule="evenodd" d="M96.8964 0.791331C99.3166 2.30729 100.668 3.85157 101.578 6.50703C101.639 8.23831 101.664 9.956 101.663 11.6874L101.668 13.3122C101.673 15.1134 101.674 16.9145 101.675 18.7156V18.7251C101.678 20.0157 101.681 21.3063 101.684 22.597C101.692 26.1088 101.696 29.6207 101.698 33.1325C101.7 35.3257 101.703 37.5189 101.705 39.7121C101.712 45.7853 101.719 51.8585 101.721 57.9317L101.721 59.1096L101.722 60.2903L101.722 62.6589L101.723 63.8457C101.725 70.1897 101.736 76.5337 101.75 82.8778C101.764 89.3923 101.771 95.9068 101.772 102.421C101.773 106.078 101.776 109.736 101.787 113.393C101.797 116.833 101.798 120.274 101.793 123.714C101.792 124.977 101.795 126.239 101.801 127.502C101.808 129.226 101.805 130.95 101.799 132.674L101.813 134.187C101.787 137.301 101.299 139.468 99.7805 142.228C97.0334 144.702 95.2446 145.353 91.5801 145.302C88.7007 144.967 87.1055 143.404 85.3159 141.318C83.8664 138.719 83.8639 136.761 83.8946 133.854L83.8833 132.202C83.8737 130.38 83.8813 128.559 83.8888 126.737V126.737V126.736V126.736V126.735V126.735L83.8888 126.729C83.8856 125.42 83.8813 124.111 83.8761 122.802C83.8652 119.248 83.8694 115.694 83.877 112.14C83.8822 108.936 83.8788 105.731 83.8753 102.527V102.518L83.8737 100.986C83.869 94.3414 83.8765 87.6971 83.8887 81.0528C83.8994 75.0308 83.8975 69.0089 83.8865 62.9869C83.8736 55.9905 83.8689 48.9941 83.876 41.9977C83.8797 38.2953 83.8802 34.593 83.8723 30.8906C83.8654 27.41 83.8702 23.9295 83.884 20.4489C83.8872 19.171 83.8863 17.8931 83.881 16.6153C83.8744 14.8717 83.8826 13.1288 83.8946 11.3853L83.8784 9.85063C83.9202 6.70835 84.4606 4.93111 86.5962 2.42959C89.6862 -0.209825 93.0398 -0.605179 96.8964 0.791331ZM67.4186 16.4101C70.3392 17.8295 71.8241 19.491 73.4115 22.2351L73.4115 22.2352C73.554 23.1863 73.6288 23.6858 73.6681 24.1881C73.7116 24.7436 73.7117 25.3025 73.7119 26.4796L73.7219 27.7354C73.7301 29.1172 73.7211 30.4985 73.7122 31.8803C73.7145 32.8737 73.7178 33.8671 73.722 34.8605C73.7304 37.5539 73.7237 40.2471 73.7138 42.9406C73.7065 45.4045 73.7086 47.8684 73.7106 50.3324L73.7115 51.4016C73.7131 56.1376 73.705 60.8736 73.6911 65.6096C73.6752 71.0831 73.6741 76.5563 73.6812 82.0298C73.6876 87.2977 73.6839 92.5656 73.6754 97.8336C73.672 100.074 73.672 102.315 73.6749 104.556C73.6777 107.195 73.6717 109.834 73.6587 112.473C73.6554 113.441 73.6551 114.409 73.6581 115.377C73.6617 116.699 73.6542 118.022 73.6439 119.344L73.6394 121.585C73.2952 124.611 72.3587 126.475 69.9656 128.431C67.7711 129.538 66.2964 129.954 63.8229 129.996C61.047 129.127 59.0544 128.151 57.2307 125.919C56.0054 123.524 55.8804 121.534 55.8759 118.876L55.869 117.636C55.8628 116.269 55.8652 114.901 55.8676 113.534C55.8649 112.552 55.8618 111.57 55.8583 110.588C55.8502 107.924 55.8499 105.259 55.8514 102.595C55.8521 100.405 55.8492 98.2156 55.8464 96.026L55.8464 96.0187L55.8463 95.9202C55.8396 90.6712 55.8393 85.4222 55.843 80.1732C55.8466 74.7591 55.8392 69.345 55.8265 63.9308C55.8159 59.2812 55.8123 54.6316 55.8142 49.982C55.8153 47.2055 55.8138 44.429 55.8054 41.6526C55.7979 39.0416 55.7991 36.4308 55.8069 33.8198C55.8083 32.8622 55.8067 31.9046 55.8017 30.9471C55.7954 29.6385 55.8003 28.3304 55.8079 27.0218L55.8076 24.8041C56.1397 21.8664 57.1032 19.976 59.3282 17.9756C61.8849 16.2982 64.3995 16.0148 67.4186 16.4101ZM157.313 28.6414C156.029 25.6774 154.972 24.1943 151.919 22.8165C148.835 22.3391 145.805 22.1206 143.23 24.0543C141.295 26.2168 140.073 28.1168 139.711 30.9954L139.713 32.9053C139.708 34.0326 139.703 35.1601 139.711 36.2874C139.717 37.1116 139.72 37.9358 139.719 38.76C139.714 41.0086 139.715 43.257 139.725 45.5055C139.736 47.8953 139.739 50.2849 139.74 52.6747C139.741 56.6763 139.747 60.6778 139.76 64.6794C139.777 69.8557 139.788 75.0319 139.79 80.2083C139.793 84.6931 139.798 89.1779 139.807 93.6627C139.809 95.096 139.812 96.5293 139.813 97.9626C139.816 100.256 139.82 102.55 139.828 104.844C139.831 105.688 139.834 106.532 139.837 107.376L139.839 109.783L139.849 111.973C139.856 114.412 139.903 116.181 141.244 118.309C143.019 120.271 144.651 121.659 147.387 122.047C150.326 122.136 152.657 122.095 154.916 120.093C155.952 118.791 156.599 117.977 157.001 117.056C157.67 115.523 157.657 113.693 157.623 108.816C157.616 107.984 157.615 107.153 157.617 106.321C157.628 104.051 157.631 101.78 157.621 99.5097C157.611 97.0955 157.609 94.6814 157.611 92.2673C157.615 88.2216 157.611 84.176 157.598 80.1304C157.582 75.4239 157.573 70.7177 157.58 66.0112C157.587 61.4444 157.588 56.8777 157.579 52.3108L157.579 52.2631C157.576 50.3437 157.572 48.4242 157.574 46.5048C157.577 44.1892 157.578 41.8738 157.567 39.5583C157.563 38.7035 157.558 37.8488 157.555 36.9941C157.558 36.188 157.561 35.3819 157.563 34.5758L157.545 32.3513C157.543 31.3547 157.542 30.8736 157.51 30.3946C157.48 29.9476 157.423 29.5023 157.313 28.6416V28.6414ZM123.152 41.4574C125.316 42.1974 126.92 43.2558 128.348 45.0332C129.373 47.1764 129.401 49.0968 129.387 51.4131L129.399 52.8263C129.41 54.3634 129.408 55.9001 129.405 57.4372C129.407 58.5086 129.411 59.5801 129.414 60.6515C129.42 62.8955 129.418 65.1395 129.412 67.3835C129.405 70.2557 129.417 73.1274 129.435 75.9996C129.446 78.2118 129.446 80.424 129.442 82.6363C129.442 83.695 129.446 84.7538 129.453 85.8125C129.462 87.2946 129.456 88.7759 129.445 90.258L129.463 91.576C129.42 94.5594 128.661 96.233 126.748 98.5416C124.407 100.61 121.838 100.654 118.795 100.567C116.599 100.194 115.398 99.3871 113.767 97.9568C111.761 95.0523 111.613 91.717 111.601 88.3174L111.592 87.0471C111.583 85.6733 111.584 84.2996 111.585 82.9258C111.583 81.9633 111.58 81.0008 111.577 80.0384C111.573 78.0256 111.573 76.0128 111.576 74C111.58 71.4297 111.57 68.8597 111.556 66.2894C111.547 64.303 111.546 62.3166 111.548 60.3302C111.548 59.3829 111.545 58.4357 111.539 57.4885C111.504 51.232 111.492 49.1822 112.12 47.3514C112.425 46.4594 112.883 45.6193 113.563 44.3699L113.563 44.3698C116.627 41.5373 119.022 40.9844 123.152 41.4574ZM45.2443 60.679C43.9852 58.0284 42.5636 56.7311 39.8507 55.4366C36.5303 54.9711 33.4775 54.9404 30.8613 57.1841C28.6511 59.7431 28.1833 61.5948 28.1465 64.8191L28.1669 66.397C28.1651 67.5138 28.1647 68.6307 28.1657 69.7475C28.1847 71.4977 28.202 73.2469 28.1969 74.9972C28.1918 76.1443 28.191 77.2914 28.1948 78.4385L28.2043 80.0856C28.1979 81.9819 28.1969 83.8455 28.4642 85.7262C29.7181 88.3736 31.1618 89.6584 33.8578 90.9686C37.2159 91.4951 40.0142 91.1422 42.8471 89.2211C45.0762 86.6827 45.5252 84.8027 45.562 81.5861L45.5416 80.0082C45.5434 78.8914 45.5437 77.7746 45.5427 76.6578C45.5237 74.9076 45.5065 73.1584 45.5116 71.4081C45.5167 70.261 45.5175 69.1138 45.5136 67.9667L45.5041 66.3197C45.5105 64.4234 45.5118 62.5597 45.2443 60.679ZM178.886 58.3498C181.695 59.3475 183.236 60.5853 184.879 63.0097C185.628 65.3167 185.627 67.6494 185.626 70.0316C185.626 70.3718 185.626 70.713 185.628 71.0554L185.665 72.6037C185.689 76.5215 185.152 79.3679 182.481 82.4504C180.253 84.2104 177.943 84.1799 175.214 84.1438L174.995 84.1409C172.745 83.8991 171.541 83.1314 169.896 81.6494C167.757 78.6073 167.806 75.518 167.861 72.043C167.865 71.7411 167.87 71.4362 167.874 71.1282L167.853 69.2294L167.86 67.3943L167.866 65.7331C168.252 63.1446 169.441 61.6509 171.432 59.9516C173.897 58.2315 175.899 58.0519 178.886 58.3498ZM17.432 64.8373C16.6927 62.2295 15.3108 60.5126 13.0334 59.0033C9.28675 57.7427 6.02362 57.8165 2.69563 60.0955C0.341287 63.1549 0.00243075 65.5427 0 69.33L0.036285 71.1992C0.0343956 71.4745 0.0315295 71.7472 0.0286892 72.0174C-0.00802252 75.51 -0.0404184 78.592 2.09634 81.6477C3.74139 83.1296 4.94491 83.8973 7.19497 84.1392C7.26841 84.1401 7.34155 84.1411 7.41438 84.1421C10.1429 84.1781 12.4527 84.2086 14.6814 82.4486C17.2117 79.5281 17.8909 76.7657 17.8651 73.0445L17.8277 71.6725C17.8121 69.3683 17.769 67.1207 17.432 64.8373Z" fill="#FAFAFA"/>
</svg>
