<svg width="47" height="38" viewBox="0 0 47 38" fill="none" xmlns="http://www.w3.org/2000/svg">
<path d="M25.1491 18.7223V34.581C25.1491 34.8518 25.1491 35.1069 25.1333 35.3777C25.095 35.8985 24.8595 36.3848 24.4754 36.7369C24.0912 37.089 23.5873 37.2802 23.0672 37.2712C22.5463 37.27 22.0452 37.0707 21.6648 36.7136C21.2844 36.3564 21.0528 35.8679 21.0168 35.3463C21.001 35.15 21.0168 34.9538 21.0168 34.7753V1.96289C21.0577 1.44749 21.2835 0.964511 21.6524 0.603636C22.0212 0.242761 22.508 0.0285116 23.0223 0.000670415C23.5524 -0.0128035 24.0675 0.177249 24.4628 0.53205C24.858 0.886851 25.1035 1.37966 25.1491 1.90993C25.1491 2.18072 25.1648 2.43582 25.1648 2.70661C25.1491 8.053 25.1438 13.3915 25.1491 18.7223Z" fill="#FC4F00" fill-opacity="0.1"/>
<path d="M18.1879 18.7672V30.7368C18.196 30.9992 18.181 31.2618 18.143 31.5216C18.0662 32.0331 17.8036 32.4981 17.4058 32.8269C17.008 33.1558 16.5031 33.3253 15.9883 33.3029C15.4734 33.2805 14.985 33.0677 14.6171 32.7056C14.2491 32.3434 14.0276 31.8574 13.9952 31.3411C13.9794 31.1763 13.9794 31.0095 13.9794 30.8309V6.67593C13.9642 6.31502 14.0097 5.95412 14.1143 5.60846C14.2633 5.1733 14.5506 4.79932 14.932 4.54406C15.3134 4.2888 15.7678 4.16639 16.2253 4.19566C16.658 4.21607 17.0725 4.3763 17.4072 4.65247C17.7418 4.92863 17.9785 5.30594 18.0822 5.72817C18.1551 6.05397 18.1905 6.38712 18.1876 6.72105L18.1879 18.7672Z" fill="#FC4F00" fill-opacity="0.1"/>
<path d="M39.1371 18.6025V28.5608C39.1371 28.8925 39.1214 29.2378 39.0923 29.5674C39.0104 30.0716 38.7453 30.5273 38.3482 30.8466C37.951 31.1659 37.4501 31.3261 36.9421 31.2962C36.4496 31.2681 35.9823 31.0679 35.6214 30.7303C35.2605 30.3927 35.0286 29.939 34.9659 29.4477C34.9502 29.2829 34.9502 29.1161 34.9502 28.9376V8.15367C34.9304 7.81821 34.9709 7.48192 35.0695 7.16079C35.2314 6.70267 35.5469 6.31524 35.9619 6.06471C36.3768 5.81418 36.8656 5.7161 37.3447 5.78724C37.7864 5.85135 38.1953 6.05856 38.509 6.37733C38.8226 6.69611 39.024 7.10901 39.0825 7.55323C39.1197 7.86243 39.1347 8.17393 39.1273 8.4853L39.1371 18.6025Z" fill="#FC4F00" fill-opacity="0.1"/>
<path d="M32.1442 18.1985V23.3003C32.1542 23.4907 32.1489 23.6817 32.1284 23.8713C32.0782 24.3666 31.8538 24.8278 31.4957 25.1723C31.1375 25.5167 30.6689 25.7219 30.1737 25.7511C29.6784 25.786 29.1873 25.6391 28.7917 25.3377C28.3962 25.0363 28.1232 24.6009 28.0236 24.1126C27.9639 23.8307 27.9338 23.5433 27.9336 23.2551V13.0947C27.936 12.8315 27.9608 12.5689 28.0078 12.3098C28.0954 11.8211 28.3554 11.3804 28.7402 11.0683C29.125 10.7563 29.6089 10.5938 30.1033 10.6106C30.6226 10.6279 31.117 10.8382 31.4905 11.2008C31.864 11.5634 32.09 12.0524 32.1246 12.5728C32.1404 12.769 32.1246 12.9652 32.1246 13.1438C32.1442 14.847 32.1442 16.5149 32.1442 18.1985Z" fill="#FC4F00" fill-opacity="0.1"/>
<path d="M11.1791 18.7339C11.1791 19.5462 11.1948 20.3723 11.1791 21.1847C11.1921 21.6699 11.0339 22.1442 10.7324 22.5237C10.4309 22.9033 10.0054 23.1636 9.53121 23.2588C8.99216 23.3737 8.42969 23.269 7.96753 22.9677C7.50537 22.6664 7.18137 22.1931 7.0668 21.652L7.06036 21.6203C7.02313 21.3815 7.00811 21.1398 7.0155 20.8982V16.2085C7.02588 15.6865 7.23364 15.188 7.59663 14.8142C7.95963 14.4403 8.45069 14.219 8.97022 14.1952C9.50264 14.1674 10.0255 14.345 10.4318 14.6915C10.8381 15.0381 11.097 15.5274 11.1557 16.0593C11.1714 16.2241 11.1714 16.391 11.1714 16.5695V18.728L11.1791 18.7339Z" fill="#FC4F00" fill-opacity="0.1"/>
<path d="M4.17038 18.2419V19.535C4.14394 20.0656 3.91682 20.566 3.53535 20.9343C3.15388 21.3025 2.64681 21.5107 2.11761 21.5165C1.58841 21.5223 1.07697 21.3251 0.687637 20.9652C0.298306 20.6054 0.0604309 20.11 0.0225501 19.5801C-0.00751672 18.6932 -0.00751672 17.8062 0.0225501 16.9193C0.051035 16.4599 0.233988 16.0238 0.541482 15.6823C0.848975 15.3408 1.26281 15.1142 1.71528 15.0395C2.17578 14.9527 2.65202 15.0258 3.06557 15.247C3.47912 15.4681 3.80532 15.824 3.99046 16.2561C4.09086 16.5257 4.14633 16.8101 4.15462 17.0979C4.18206 17.4779 4.18732 17.8592 4.17038 18.2399V18.2419Z" fill="#FC4F00" fill-opacity="0.1"/>
<path d="M41.9637 18.2418C41.9637 17.8061 41.948 17.3843 41.9637 16.9486C41.9993 16.4551 42.2084 15.9903 42.5537 15.6371C42.899 15.284 43.358 15.0654 43.8489 15.0204C44.3398 14.9754 44.8307 15.1068 45.234 15.3914C45.6373 15.6759 45.9268 16.095 46.0509 16.5739C46.0807 16.6919 46.0958 16.8132 46.0958 16.9349C46.0958 17.8219 46.1251 18.7009 46.0958 19.5957C46.0729 20.0653 45.8866 20.512 45.5695 20.858C45.2524 21.204 44.8244 21.4273 44.3601 21.4893C43.8722 21.5774 43.369 21.4842 42.9445 21.2271C42.52 20.97 42.2033 20.5665 42.0534 20.0921C41.9888 19.8621 41.954 19.6247 41.9499 19.3857C41.9341 19.011 41.9499 18.6342 41.9656 18.2437L41.9637 18.2418Z" fill="#FC4F00" fill-opacity="0.1"/>
</svg>
