<svg width="24" height="24" viewBox="0 0 24 24" fill="none" xmlns="http://www.w3.org/2000/svg">
<rect width="24" height="24" rx="12" transform="matrix(1 0 0 -1 0 24)" fill="#FC5000"/>
<path fill-rule="evenodd" clip-rule="evenodd" d="M11.6464 15.8536C11.8417 16.0488 12.1583 16.0488 12.3536 15.8536L15.8536 12.3536C16.0488 12.1583 16.0488 11.8417 15.8536 11.6464L12.3536 8.14645C12.1583 7.95118 11.8417 7.95118 11.6464 8.14645C11.4512 8.34171 11.4512 8.65829 11.6464 8.85355L14.2929 11.5H8.5C8.22386 11.5 8 11.7239 8 12C8 12.2761 8.22386 12.5 8.5 12.5H14.2929L11.6464 15.1464C11.4512 15.3417 11.4512 15.6583 11.6464 15.8536Z" fill="#FAFAFA"/>
</svg>
