<svg width="53" height="42" viewBox="0 0 53 42" fill="none" xmlns="http://www.w3.org/2000/svg">
<g opacity="0.2">
<path d="M27.6601 41.7713C28.351 41.3331 28.7367 40.8867 28.9966 40.1192C29.0139 39.6187 29.0212 39.1222 29.0207 38.6218C29.0212 38.4668 29.0217 38.3118 29.0222 38.1521C29.0237 37.6306 29.024 37.1091 29.0242 36.5875C29.025 36.2145 29.0259 35.8414 29.0268 35.4684C29.029 34.4533 29.0301 33.4382 29.0309 32.4231C29.0314 31.7892 29.0321 31.1552 29.0329 30.5213C29.0349 28.7658 29.0367 27.0104 29.0373 25.2549C29.0373 25.1426 29.0374 25.0302 29.0374 24.9145C29.0374 24.8018 29.0375 24.6892 29.0375 24.5732C29.0376 24.345 29.0377 24.1168 29.0377 23.8885C29.0378 23.7753 29.0378 23.6621 29.0379 23.5455C29.0385 21.7118 29.0415 19.8781 29.0455 18.0443C29.0496 16.1613 29.0516 14.2783 29.0519 12.3953C29.0521 11.3382 29.0531 10.2811 29.0561 9.22403C29.0589 8.22957 29.0593 7.23515 29.0578 6.24069C29.0577 5.87574 29.0584 5.51079 29.0601 5.14585C29.0623 4.64747 29.0613 4.1492 29.0595 3.65082C29.0609 3.50655 29.0623 3.36227 29.0637 3.21362C29.0561 2.31348 28.9169 1.68692 28.4834 0.889343C27.6992 0.174023 27.1886 -0.0140686 26.1426 0.000804901C25.3206 0.0976601 24.8653 0.549305 24.3544 1.15242C23.9406 1.90355 23.9399 2.46941 23.9487 3.30962C23.9476 3.46721 23.9465 3.62481 23.9454 3.78718C23.9427 4.31456 23.9449 4.84181 23.947 5.36919C23.9461 5.74756 23.9449 6.12593 23.9434 6.5043C23.9403 7.53154 23.9415 8.55875 23.9437 9.58599C23.9454 10.6607 23.9438 11.7355 23.9427 12.8103C23.9414 14.7308 23.9435 16.6513 23.947 18.5718C23.95 20.3125 23.9495 22.0531 23.9464 23.7938C23.9427 25.8161 23.9413 27.8383 23.9434 29.8606C23.9444 30.9308 23.9446 32.0009 23.9423 33.0711C23.9403 34.0772 23.9417 35.0832 23.9457 36.0893C23.9466 36.4587 23.9463 36.828 23.9448 37.1974C23.9429 37.7013 23.9453 38.2051 23.9487 38.7091C23.9471 38.8555 23.9456 39.0019 23.944 39.1527C23.956 40.061 24.1102 40.5747 24.7199 41.2977C25.6019 42.0606 26.5592 42.1749 27.6601 41.7713Z" fill="#FB4F00"/>
<path d="M19.2447 37.257C20.0784 36.8468 20.5023 36.3665 20.9554 35.5733C21.041 34.9943 21.041 34.9943 21.0412 34.3465C21.0421 34.2267 21.043 34.1069 21.044 33.9835C21.0463 33.5841 21.0438 33.1848 21.0412 32.7854C21.0419 32.4982 21.0428 32.2111 21.044 31.924C21.0464 31.1454 21.0445 30.367 21.0417 29.5884C21.0393 28.7732 21.0404 27.958 21.041 27.1428C21.0415 25.7738 21.0392 24.4049 21.0352 23.036C21.0307 21.4539 21.0304 19.8719 21.0324 18.2898C21.0342 16.7671 21.0332 15.2444 21.0307 13.7217C21.0298 13.074 21.0298 12.4264 21.0306 11.7787C21.0314 11.0158 21.0297 10.253 21.026 9.49017C21.025 9.21041 21.0249 8.93064 21.0258 8.65087C21.0268 8.26857 21.0247 7.88641 21.0217 7.50412C21.0213 7.29033 21.0209 7.07653 21.0205 6.85626C20.9222 5.98174 20.6549 5.44305 19.9717 4.87769C19.3453 4.55756 18.9244 4.43739 18.2183 4.42519C17.4259 4.67634 16.8571 4.95857 16.3365 5.60377C15.9867 6.29585 15.951 6.87125 15.9497 7.63946C15.9491 7.75772 15.9484 7.87599 15.9478 7.99783C15.946 8.39308 15.9467 8.78828 15.9474 9.18353C15.9466 9.46733 15.9457 9.75112 15.9447 10.0349C15.9424 10.8051 15.9423 11.5753 15.9427 12.3454C15.9429 12.9885 15.9421 13.6316 15.9413 14.2748C15.9394 15.792 15.9393 17.3092 15.9403 18.8264C15.9414 20.3914 15.9393 21.9563 15.9356 23.5212C15.9326 24.8652 15.9316 26.2092 15.9321 27.5531C15.9324 28.3557 15.932 29.1582 15.9296 29.9607C15.9275 30.7154 15.9278 31.4701 15.93 32.2248C15.9304 32.5016 15.93 32.7783 15.9286 33.0551C15.9268 33.4334 15.9282 33.8115 15.9303 34.1897C15.9303 34.4013 15.9303 34.6128 15.9302 34.8307C16.025 35.6799 16.3001 36.2263 16.9352 36.8045C17.6651 37.2894 18.3829 37.3713 19.2447 37.257Z" fill="#FC4E00"/>
<path d="M43.365 35.4051C44.2365 35.0069 44.5382 34.5782 44.9046 33.7214C44.9697 33.206 44.9697 33.206 44.9709 32.6491C44.9726 32.4369 44.9743 32.2247 44.9761 32.0061C44.9753 31.7731 44.9746 31.5401 44.9737 31.3071C44.9747 31.0601 44.9759 30.813 44.9773 30.566C44.9804 29.8966 44.9802 29.2274 44.9792 28.5581C44.9787 27.9987 44.9797 27.4392 44.9807 26.8798C44.9831 25.5598 44.9829 24.2398 44.9809 22.9198C44.979 21.5594 44.9814 20.199 44.9859 18.8387C44.9897 17.6693 44.9909 16.4999 44.9899 15.3305C44.9893 14.6327 44.9897 13.9349 44.9926 13.2371C44.9953 12.5808 44.9946 11.9245 44.9914 11.2682C44.9908 11.0279 44.9913 10.7876 44.9931 10.5472C45.0086 8.29066 45.0086 8.29066 44.2203 7.28763C43.5755 6.70896 42.9102 6.69687 42.0712 6.72267C41.2901 6.83478 40.8243 7.23597 40.3178 7.80325C39.9347 8.41832 39.9215 8.92959 39.9195 9.63452C39.9185 9.84342 39.9176 10.0523 39.9166 10.2676C39.9163 10.4995 39.9161 10.7314 39.916 10.9633C39.9152 11.2073 39.9143 11.4512 39.9134 11.6951C39.9112 12.3582 39.9101 13.0212 39.9093 13.6843C39.9088 14.0986 39.9081 14.5129 39.9073 14.9272C39.905 16.2235 39.9033 17.5198 39.9027 18.8161C39.9019 20.3124 39.8989 21.8085 39.8939 23.3047C39.8902 24.4614 39.8885 25.618 39.8883 26.7747C39.8881 27.4654 39.8871 28.1562 39.884 28.8469C39.8812 29.4968 39.8809 30.1467 39.8824 30.7967C39.8825 31.0349 39.8818 31.2732 39.8801 31.5114C39.8779 31.8372 39.8792 32.1631 39.8807 32.489C39.8804 32.6712 39.8802 32.8533 39.8799 33.041C39.9833 33.8731 40.3322 34.4223 40.8844 35.0473C41.6196 35.6063 42.4845 35.5431 43.365 35.4051Z" fill="#FC4E00"/>
<path d="M35.1548 30.017C35.7726 29.8031 36.2304 29.4971 36.638 28.9834C36.9306 28.3639 36.9387 27.8088 36.9347 27.1393C36.9358 27.0045 36.937 26.8697 36.9382 26.7308C36.9413 26.2865 36.9407 25.8423 36.9397 25.398C36.9405 25.0883 36.9414 24.7786 36.9424 24.469C36.944 23.8203 36.9435 23.1717 36.9418 22.5231C36.9399 21.6929 36.9433 20.8628 36.9483 20.0326C36.9515 19.3932 36.9514 18.7537 36.9504 18.1143C36.9504 17.8083 36.9514 17.5022 36.9536 17.1962C36.9561 16.7678 36.9543 16.3396 36.9514 15.9112C36.953 15.7855 36.9547 15.6598 36.9564 15.5303C36.9441 14.6679 36.7275 14.1842 36.1812 13.5169C35.5131 12.9191 34.7796 12.9062 33.9112 12.9315C33.2843 13.0392 32.9414 13.2725 32.4758 13.6859C31.9032 14.5255 31.861 15.4895 31.8575 16.4722C31.8566 16.5933 31.8557 16.7145 31.8548 16.8394C31.8525 17.2365 31.8526 17.6335 31.853 18.0306C31.8523 18.3088 31.8516 18.587 31.8508 18.8652C31.8495 19.447 31.8496 20.0288 31.8505 20.6106C31.8514 21.3535 31.8485 22.0964 31.8446 22.8393C31.8421 23.4135 31.8419 23.9876 31.8424 24.5618C31.8424 24.8356 31.8415 25.1094 31.8397 25.3832C31.8248 28.0728 31.8248 28.0728 32.4177 29.1751C33.2922 29.9939 33.976 30.1537 35.1548 30.017Z" fill="#FB4F00"/>
<path d="M11.3762 25.9757C12.1506 25.6015 12.5564 25.2265 12.9158 24.4604C12.9922 23.9168 12.9918 23.3781 12.99 22.83C12.9909 22.6729 12.9918 22.5157 12.9927 22.3539C12.9938 22.0223 12.9936 21.6907 12.9922 21.3592C12.9907 20.8532 12.9956 20.3476 13.001 19.8418C13.0013 19.5189 13.0012 19.1961 13.0007 18.8733C13.0036 18.6476 13.0036 18.6476 13.0065 18.4172C12.996 17.4875 12.8679 16.9441 12.2316 16.2103C11.4229 15.6551 10.6241 15.5531 9.66549 15.7052C8.89592 16.0839 8.48379 16.4553 8.12585 17.2205C8.04955 17.7641 8.04985 18.3028 8.05167 18.851C8.05078 19.0081 8.04988 19.1652 8.04895 19.327C8.04786 19.6586 8.04808 19.9902 8.04954 20.3217C8.051 20.8277 8.04608 21.3333 8.04065 21.8392C8.04037 22.162 8.04047 22.4848 8.04098 22.8076C8.03906 22.9581 8.03714 23.1086 8.03516 23.2637C8.04568 24.1957 8.17922 24.7309 8.81013 25.4706C9.55694 26.1191 10.4284 26.1102 11.3762 25.9757Z" fill="#FC4E00"/>
<path d="M51.0641 25.1341C51.8661 24.8457 52.3059 24.4879 52.7748 23.7871C53.0193 23.025 52.984 22.2532 52.9887 21.4615C52.9922 21.3138 52.9957 21.1661 52.9993 21.014C53.0062 19.8815 52.8529 19.0588 52.0905 18.1678C51.4374 17.6455 50.7598 17.6687 49.9535 17.6792C49.3112 17.7491 48.9676 17.971 48.498 18.3993C47.8343 19.355 47.9084 20.3269 47.9207 21.4405C47.9187 21.6216 47.9167 21.8027 47.9147 21.9893C47.9153 22.1644 47.916 22.3394 47.9167 22.5197C47.9172 22.6782 47.9178 22.8366 47.9184 22.9999C48.0287 23.7481 48.368 24.1799 48.9364 24.671C49.64 25.1682 50.2115 25.2202 51.0641 25.1341Z" fill="#FC4E00"/>
<path d="M3.72047 24.9453C4.3706 24.509 4.76507 24.0128 4.97611 23.259C5.0723 22.5989 5.0846 21.9493 5.08904 21.2833C5.09257 21.1524 5.0961 21.0215 5.09973 20.8867C5.10708 19.8111 4.91322 19.0126 4.19092 18.1684C3.53774 17.6461 2.86015 17.6694 2.05386 17.6798C1.41156 17.7497 1.06801 17.9716 0.598416 18.4C-0.0587279 19.3515 0.00284713 20.3119 0.0103578 21.4201C0.00523071 21.6875 0.00523071 21.6875 0 21.9604C0.000693876 23.0551 0.0974231 23.7452 0.769488 24.6296C1.71949 25.2883 2.65097 25.3096 3.72047 24.9453Z" fill="#FC4E00"/>
</g>
</svg>
