<svg width="737" height="592" viewBox="0 0 737 592" fill="none" xmlns="http://www.w3.org/2000/svg">
<path fill-rule="evenodd" clip-rule="evenodd" d="M384.617 3.22151C394.224 9.393 399.587 15.6797 403.202 26.4902C403.442 33.5382 403.543 40.5309 403.536 47.5796L403.558 54.1942C403.578 61.5265 403.582 68.8588 403.585 76.1912V76.2302C403.596 81.4842 403.608 86.7383 403.621 91.9923C403.652 106.289 403.668 120.586 403.678 134.883C403.685 143.811 403.695 152.74 403.706 161.668C403.734 186.392 403.759 211.116 403.767 235.84L403.769 240.636L403.77 245.442L403.774 255.085L403.775 259.916C403.785 285.743 403.826 311.569 403.881 337.396C403.938 363.916 403.967 390.437 403.97 416.958C403.973 431.846 403.987 446.734 404.029 461.622C404.069 475.628 404.074 489.634 404.053 503.64C404.051 508.78 404.061 513.92 404.085 519.06C404.115 526.079 404.101 533.097 404.076 540.116L404.134 546.274C404.03 558.952 402.093 567.776 396.066 579.01C385.161 589.084 378.061 591.733 363.514 591.524C352.085 590.16 345.753 583.799 338.649 575.304C332.895 564.725 332.885 556.756 333.007 544.922L332.962 538.196C332.924 530.783 332.954 523.372 332.984 515.96V515.957V515.955V515.952V515.95V515.947L332.984 515.915C332.971 510.586 332.955 505.257 332.934 499.928C332.89 485.46 332.907 470.992 332.937 456.524C332.958 443.476 332.944 430.427 332.931 417.378V417.343L332.927 414.189L332.924 411.113C332.906 384.064 332.935 357.015 332.984 329.966C333.026 305.451 333.019 280.935 332.975 256.42C332.924 227.937 332.905 199.455 332.933 170.973C332.948 155.901 332.95 140.828 332.919 125.756C332.891 111.586 332.91 97.4172 332.965 83.2475C332.978 78.0453 332.974 72.843 332.953 67.6409C332.927 60.5429 332.96 53.4475 333.007 46.3497L332.943 40.102C333.109 27.3097 335.254 20.0746 343.731 9.89087C355.997 -0.854197 369.309 -2.46369 384.617 3.22151ZM267.609 66.8002C279.201 72.5783 285.096 79.3423 291.397 90.5135L291.397 90.5144C291.962 94.3849 292.259 96.4183 292.415 98.4623C292.588 100.725 292.589 103 292.589 107.793L292.629 112.905C292.661 118.531 292.626 124.154 292.591 129.779C292.6 133.823 292.613 137.868 292.629 141.912C292.663 152.877 292.636 163.841 292.597 174.806C292.568 184.837 292.576 194.868 292.584 204.9L292.588 209.251C292.594 228.531 292.562 247.811 292.507 267.092C292.444 289.374 292.439 311.656 292.467 333.938C292.493 355.384 292.478 376.83 292.445 398.276C292.431 407.397 292.431 416.519 292.442 425.641C292.454 436.385 292.43 447.129 292.378 457.873C292.365 461.813 292.364 465.754 292.376 469.694C292.39 475.078 292.36 480.461 292.319 485.845L292.302 494.97C290.935 507.287 287.218 514.874 277.719 522.836C269.008 527.345 263.154 529.037 253.336 529.209C242.317 525.672 234.407 521.697 227.168 512.61C222.304 502.863 221.808 494.759 221.79 483.939L221.763 478.891C221.738 473.325 221.748 467.759 221.757 462.192C221.747 458.195 221.734 454.198 221.72 450.201C221.688 439.354 221.687 428.506 221.693 417.659C221.696 408.746 221.684 399.833 221.673 390.92L221.673 390.891L221.673 390.486C221.646 369.118 221.645 347.749 221.66 326.38C221.674 304.339 221.645 282.298 221.594 260.257C221.552 241.329 221.538 222.4 221.546 203.471C221.55 192.168 221.544 180.865 221.511 169.562C221.481 158.933 221.485 148.304 221.516 137.675C221.522 133.777 221.515 129.878 221.496 125.98C221.471 120.653 221.49 115.328 221.52 110L221.519 100.972C222.837 89.0126 226.662 81.3171 235.494 73.1731C245.643 66.3445 255.624 65.1907 267.609 66.8002ZM624.44 116.6C619.344 104.534 615.15 98.496 603.03 92.8869C590.787 90.9437 578.76 90.0538 568.537 97.926C560.857 106.73 556.006 114.465 554.569 126.183L554.579 133.958C554.559 138.548 554.54 143.138 554.571 147.727C554.594 151.082 554.605 154.438 554.603 157.793C554.582 166.947 554.587 176.1 554.626 185.254C554.669 194.983 554.683 204.711 554.685 214.44C554.688 230.73 554.712 247.021 554.764 263.311C554.833 284.384 554.875 305.456 554.885 326.529C554.894 344.787 554.917 363.044 554.95 381.302C554.961 387.137 554.97 392.972 554.977 398.807C554.988 408.146 555.003 417.484 555.034 426.823C555.047 430.258 555.059 433.694 555.07 437.129L555.074 441.826L555.078 446.929L555.119 455.845C555.147 465.773 555.331 472.974 560.657 481.636C567.701 489.626 574.179 495.277 585.04 496.856C596.706 497.219 605.957 497.049 614.925 488.899C619.011 483.633 621.574 480.329 623.17 476.611C625.856 470.355 625.806 462.924 625.67 442.99C625.645 439.605 625.638 436.22 625.647 432.835C625.691 423.591 625.701 414.349 625.664 405.105C625.623 395.277 625.617 385.45 625.625 375.621C625.639 359.151 625.624 342.682 625.571 326.212C625.507 307.052 625.474 287.893 625.501 268.733C625.528 250.141 625.532 231.55 625.498 212.959L625.498 212.892C625.484 205.036 625.47 197.179 625.477 189.322C625.49 179.896 625.493 170.469 625.451 161.043C625.431 157.563 625.415 154.084 625.401 150.604C625.413 147.322 625.423 144.041 625.434 140.759L625.362 131.703C625.353 127.645 625.349 125.687 625.221 123.736C625.102 121.917 624.877 120.104 624.44 116.6ZM488.854 168.77C497.444 171.783 503.811 176.091 509.479 183.327C513.547 192.052 513.66 199.87 513.604 209.3L513.653 215.053C513.696 221.31 513.687 227.566 513.674 233.824C513.685 238.186 513.697 242.547 513.712 246.909C513.733 256.045 513.727 265.18 513.703 274.315C513.676 286.008 513.724 297.699 513.794 309.391C513.837 318.397 513.837 327.403 513.823 336.409C513.823 340.72 513.837 345.03 513.867 349.34C513.902 355.373 513.877 361.404 513.836 367.438L513.906 372.803C513.734 384.949 510.723 391.762 503.127 401.16C493.836 409.58 483.637 409.762 471.561 409.404C462.844 407.888 458.075 404.602 451.601 398.779C443.639 386.955 443.052 373.377 443.003 359.537L442.966 354.366C442.933 348.773 442.935 343.181 442.94 337.588C442.931 333.67 442.921 329.752 442.91 325.833C442.892 317.639 442.892 309.445 442.905 301.251C442.919 290.787 442.878 280.325 442.823 269.861C442.788 261.775 442.786 253.688 442.794 245.601C442.792 241.745 442.78 237.889 442.756 234.033C442.616 208.504 442.571 200.179 445.079 192.713C446.293 189.1 448.104 185.689 450.792 180.627C462.953 169.095 472.462 166.844 488.854 168.77ZM179.603 247.02C174.605 236.23 168.962 230.948 158.194 225.678C145.013 223.784 132.896 223.658 122.511 232.792C113.738 243.21 111.881 250.748 111.734 263.875L111.815 270.298C111.808 274.845 111.807 279.392 111.811 283.938C111.886 291.063 111.955 298.184 111.934 305.31C111.914 309.979 111.911 314.649 111.926 319.319L111.964 326.025C111.939 333.744 111.935 341.331 112.995 348.988C117.973 359.765 123.704 364.996 134.405 370.329C147.735 372.473 158.843 371.036 170.088 363.216C178.936 352.882 180.718 345.228 180.864 332.133L180.783 325.71C180.79 321.163 180.792 316.616 180.788 312.07C180.712 304.945 180.644 297.824 180.664 290.698C180.684 286.029 180.688 281.359 180.672 276.689L180.635 269.983C180.66 262.264 180.665 254.676 179.603 247.02ZM710.088 237.536C721.24 241.598 727.356 246.637 733.876 256.507C736.851 265.899 736.847 275.395 736.843 285.093C736.842 286.478 736.842 287.867 736.85 289.261L736.999 295.564C737.094 311.513 734.962 323.101 724.361 335.65C715.515 342.815 706.346 342.691 695.515 342.544L694.644 342.532C685.713 341.548 680.935 338.422 674.405 332.389C665.914 320.005 666.107 307.428 666.325 293.281C666.344 292.052 666.363 290.811 666.377 289.557L666.293 281.827L666.321 274.357L666.345 267.594C667.879 257.056 672.598 250.975 680.501 244.057C690.286 237.055 698.232 236.324 710.088 237.536ZM69.1956 263.956C66.2609 253.34 60.7756 246.35 51.7352 240.206C36.8633 235.074 23.9104 235.374 10.7002 244.652C1.35472 257.107 0.00964873 266.828 0 282.246L0.144032 289.856C0.136532 290.976 0.125155 292.086 0.11388 293.186C-0.0318449 307.405 -0.160439 319.952 8.32131 332.391C14.8513 338.424 19.6286 341.55 28.5601 342.534C28.8515 342.538 29.1418 342.542 29.4308 342.546C40.2616 342.693 49.4304 342.817 58.277 335.652C68.321 323.762 71.0168 312.517 70.9146 297.368L70.766 291.782C70.7042 282.402 70.5332 273.252 69.1956 263.956Z" fill="#FB591F" fill-opacity="0.05"/>
</svg>
