<svg width="98" height="79" viewBox="0 0 98 79" fill="none" xmlns="http://www.w3.org/2000/svg">
<path fill-rule="evenodd" clip-rule="evenodd" d="M51.1444 0.428373C52.4218 1.24901 53.135 2.08497 53.6157 3.52246C53.6475 4.45966 53.661 5.3895 53.6601 6.32677L53.6629 7.20633C53.6657 8.18306 53.6662 9.15978 53.6666 10.1365C53.6681 10.8352 53.6697 11.5338 53.6714 12.2324C53.6755 14.1335 53.6776 16.0346 53.679 17.9357C53.6799 19.1229 53.6812 20.3102 53.6826 21.4974C53.6865 24.785 53.6897 28.0727 53.6908 31.3603L53.691 31.9979L53.6912 32.6371L53.6917 33.9193L53.6919 34.5617C53.6931 37.9959 53.6986 41.4301 53.706 44.8644C53.7135 48.3909 53.7174 51.9174 53.7178 55.4439C53.7181 57.4236 53.72 59.4033 53.7257 61.3831C53.7309 63.2455 53.7316 65.1079 53.7288 66.9703C53.7285 67.6538 53.7299 68.3373 53.733 69.0207C53.7371 69.9541 53.7352 70.8873 53.7319 71.8206L53.7396 72.6394C53.7257 74.3252 53.4682 75.4986 52.6667 76.9923C51.2167 78.332 50.2725 78.6843 48.3383 78.6564C46.8185 78.475 45.9765 77.6292 45.0319 76.4996C44.2668 75.0929 44.2655 74.0332 44.2817 72.4596L44.2757 71.5652C44.2707 70.579 44.2746 69.5931 44.2786 68.6069V68.6066V68.6062V68.6059V68.6056V68.6053L44.2786 68.6025C44.2769 67.8938 44.2747 67.1852 44.2719 66.4766C44.2661 64.5528 44.2684 62.629 44.2724 60.7052C44.2752 58.9684 44.2733 57.2317 44.2715 55.4949L44.2706 54.6668C44.2682 51.07 44.2721 47.4732 44.2786 43.8765C44.2842 40.6165 44.2832 37.3567 44.2774 34.0968C44.2706 30.3094 44.2681 26.5221 44.2718 22.7347C44.2738 20.7305 44.2741 18.7263 44.2699 16.7221C44.2663 14.8379 44.2688 12.9538 44.2761 11.0696C44.2778 10.3779 44.2773 9.68612 44.2745 8.99438C44.271 8.05054 44.2754 7.10705 44.2817 6.16324L44.2731 5.33246C44.2952 3.63144 44.5804 2.66936 45.7076 1.31521C47.3387 -0.113585 49.1088 -0.327603 51.1444 0.428373ZM35.5854 8.8825C37.1269 9.65083 37.9107 10.5503 38.7486 12.0357C38.8238 12.5505 38.8633 12.8209 38.884 13.0927C38.907 13.3935 38.907 13.6961 38.9072 14.3334L38.9125 15.0132C38.9167 15.7613 38.912 16.509 38.9073 17.257C38.9085 17.7948 38.9102 18.3325 38.9125 18.8703C38.9169 20.3283 38.9134 21.7862 38.9082 23.2443C38.9043 24.5779 38.9054 25.9115 38.9065 27.2451L38.9069 27.8245C38.9078 30.3883 38.9035 32.952 38.8962 35.5158C38.8878 38.4787 38.8872 41.4416 38.8909 44.4045C38.8943 47.2562 38.8924 50.1079 38.8879 52.9596C38.8861 54.1726 38.8861 55.3855 38.8876 56.5985C38.8891 58.0272 38.8859 59.4558 38.8791 60.8844C38.8773 61.4084 38.8772 61.9324 38.8788 62.4563C38.8806 63.1723 38.8767 63.888 38.8712 64.6039L38.8689 65.8173C38.6872 67.4551 38.1929 68.4639 36.9298 69.5228C35.7714 70.1223 34.9931 70.3474 33.6875 70.3702C32.2223 69.8998 31.1706 69.3713 30.2079 68.1629C29.5612 66.8668 29.4952 65.7892 29.4928 64.3505L29.4892 63.6793C29.4859 62.9391 29.4872 62.199 29.4884 61.4587C29.487 60.9272 29.4854 60.3957 29.4835 59.8643C29.4793 58.4219 29.4791 56.9795 29.4799 55.5371C29.4802 54.3507 29.4787 53.1643 29.4773 51.9779L29.4772 51.9238C29.4737 49.0824 29.4735 46.241 29.4754 43.3995C29.4774 40.4686 29.4735 37.5378 29.4667 34.607C29.4612 32.09 29.4593 29.573 29.4603 27.056C29.4609 25.553 29.46 24.05 29.4556 22.547C29.4517 21.1336 29.4523 19.7203 29.4564 18.3069C29.4571 17.7885 29.4563 17.2702 29.4537 16.7518C29.4504 16.0434 29.4529 15.3353 29.4569 14.6269L29.4568 13.4264C29.6321 11.8361 30.1406 10.8128 31.3151 9.72993C32.6645 8.82191 33.9918 8.66849 35.5854 8.8825ZM83.0336 15.5047C82.356 13.9002 81.7982 13.0973 80.1867 12.3515C78.5587 12.0931 76.9594 11.9747 75.6 13.0215C74.5789 14.1922 73.9338 15.2207 73.7426 16.779L73.744 17.8128C73.7413 18.4231 73.7389 19.0334 73.7429 19.6437C73.746 20.0899 73.7474 20.536 73.7472 20.9822C73.7444 22.1994 73.7451 23.4165 73.7503 24.6338C73.7559 25.9274 73.7578 27.221 73.7581 28.5146C73.7586 30.6808 73.7617 32.847 73.7686 35.0132C73.7777 37.8153 73.7833 40.6173 73.7847 43.4194C73.7859 45.8472 73.789 48.275 73.7933 50.7028C73.7947 51.4786 73.796 52.2545 73.797 53.0304C73.7984 54.2722 73.8004 55.514 73.8046 56.7557C73.8063 57.2126 73.8078 57.6694 73.8093 58.1263L73.8104 59.4293L73.8159 60.6149C73.8195 61.9351 73.844 62.8926 74.5522 64.0445C75.4888 65.1069 76.3502 65.8582 77.7945 66.0682C79.3457 66.1165 80.5759 66.0939 81.7683 65.0101C82.3117 64.3099 82.6525 63.8707 82.8648 63.3763C83.2219 62.5444 83.2152 61.5563 83.1972 58.9055C83.1939 58.4554 83.1929 58.0053 83.1941 57.5552C83.2 56.3261 83.2013 55.0971 83.1964 53.8679C83.1909 52.561 83.1902 51.2542 83.1912 49.9474C83.1931 47.7573 83.191 45.5673 83.184 43.3773C83.1755 40.8295 83.171 38.2819 83.1747 35.7341C83.1783 33.262 83.1788 30.7898 83.1743 28.3177L83.1743 28.2931C83.1724 27.2536 83.1705 26.2142 83.1715 25.1747C83.1733 23.9212 83.1736 22.6678 83.168 21.4143C83.1654 20.9516 83.1632 20.4889 83.1614 20.0263L83.1657 18.7172L83.1562 17.513C83.155 16.9734 83.1544 16.7129 83.1375 16.4536C83.1217 16.2116 83.0916 15.9706 83.0336 15.5047ZM65.0034 22.4417C66.1457 22.8424 66.9922 23.4153 67.7459 24.3774C68.2869 25.5376 68.3019 26.5772 68.2944 27.8311L68.301 28.5961C68.3067 29.4282 68.3055 30.2601 68.3037 31.0921C68.3052 31.6721 68.3069 32.2521 68.3088 32.8321C68.3116 34.0469 68.3108 35.2616 68.3077 36.4764C68.304 38.0312 68.3104 39.5858 68.3197 41.1405C68.3255 42.3381 68.3254 43.5356 68.3236 44.7332C68.3235 45.3063 68.3254 45.8795 68.3294 46.4526C68.3341 47.2549 68.3307 48.0568 68.3253 48.8591L68.3345 49.5725C68.3118 51.1876 67.9114 52.0935 66.9013 53.3432C65.6658 54.4628 64.3096 54.487 62.7039 54.4395C61.5448 54.2378 60.9106 53.8009 60.0497 53.0267C58.991 51.4544 58.913 49.6489 58.9064 47.8086L58.9015 47.1209C58.8971 46.3772 58.8974 45.6336 58.8981 44.8899C58.8969 44.3689 58.8955 43.8479 58.894 43.3269C58.8917 42.2373 58.8917 41.1477 58.8934 40.0581C58.8952 38.6667 58.8899 37.2755 58.8826 35.8841C58.8779 34.8088 58.8776 33.7335 58.8786 32.6582C58.8784 32.1454 58.8768 31.6326 58.8736 31.1199V31.1198C58.855 27.7252 58.849 26.6183 59.1825 25.6255C59.3439 25.1451 59.5848 24.6915 59.9422 24.0184C61.5593 22.485 62.8237 22.1857 65.0034 22.4417ZM23.8816 32.8469C23.217 31.4121 22.4667 30.7098 21.0347 30.009C19.2821 29.7571 17.6708 29.7404 16.2899 30.955C15.1233 32.3403 14.8764 33.3426 14.8569 35.0881L14.8677 35.9423C14.8668 36.5468 14.8666 37.1514 14.8671 37.756C14.8771 38.7034 14.8862 39.6503 14.8835 40.5978C14.8808 41.2188 14.8804 41.8397 14.8824 42.4607L14.8875 43.3523C14.8841 44.3788 14.8836 45.3877 15.0246 46.4058C15.6865 47.8389 16.4485 48.5344 17.8715 49.2436C19.644 49.5286 21.121 49.3376 22.6163 48.2977C23.7929 46.9236 24.0299 45.9059 24.0493 44.1646L24.0385 43.3104C24.0395 42.7059 24.0397 42.1013 24.0392 41.4967C24.0291 40.5493 24.02 39.6024 24.0227 38.6549C24.0254 38.0339 24.0258 37.413 24.0238 36.792L24.0188 35.9004C24.0221 34.8738 24.0228 33.865 23.8816 32.8469ZM94.4212 31.5861C95.9041 32.1262 96.7175 32.7963 97.5844 34.1086C97.98 35.3575 97.9794 36.6203 97.9789 37.9098C97.9788 38.094 97.9788 38.2787 97.9798 38.464L97.9996 39.3022C98.0123 41.423 97.7288 42.9639 96.3192 44.6325C95.1428 45.5853 93.9236 45.5687 92.4834 45.5492L92.3676 45.5477C91.18 45.4167 90.5447 45.0012 89.6764 44.1989C88.5472 42.5522 88.573 40.8798 88.602 38.9987V38.9987C88.6045 38.8352 88.607 38.6702 88.6088 38.5034L88.5977 37.4756L88.6014 36.4822L88.6047 35.5829C88.8086 34.1817 89.436 33.3731 90.487 32.4532C91.7881 31.522 92.8447 31.4248 94.4212 31.5861ZM9.20111 35.0989C8.81088 33.6872 8.08148 32.7578 6.87936 31.9408C4.9018 31.2584 3.17943 31.2983 1.42283 32.532C0.180141 34.1882 0.00128302 35.4808 0 37.531L0.0191522 38.5428C0.0181549 38.6919 0.0166421 38.8395 0.015143 38.9857C-0.00423451 40.8764 -0.0213339 42.5448 1.10651 44.1989C1.97481 45.0011 2.61006 45.4167 3.7977 45.5476C3.83647 45.5482 3.87507 45.5487 3.91351 45.5492C5.3537 45.5687 6.57289 45.5852 7.74924 44.6325C9.08482 43.0515 9.44328 41.5561 9.4297 39.5418L9.40993 38.799C9.40171 37.5517 9.37897 36.335 9.20111 35.0989Z" fill="#FAFAFA"/>
</svg>
