<svg width="291" height="234" viewBox="0 0 291 234" fill="none" xmlns="http://www.w3.org/2000/svg">
<path fill-rule="evenodd" clip-rule="evenodd" d="M151.865 232.292C155.658 229.856 157.776 227.373 159.203 223.105C159.298 220.322 159.338 217.561 159.335 214.778L159.344 212.166C159.352 209.266 159.353 206.366 159.354 203.465C159.359 201.391 159.364 199.316 159.369 197.242C159.381 191.597 159.387 185.952 159.391 180.307C159.394 176.781 159.398 173.256 159.402 169.731C159.413 159.969 159.423 150.206 159.426 140.444L159.427 138.551L159.428 136.653L159.429 132.846L159.429 130.938C159.433 120.741 159.45 110.543 159.471 100.346C159.494 89.8743 159.505 79.4028 159.506 68.9313C159.507 63.0527 159.513 57.1742 159.53 51.2957C159.545 45.7655 159.547 40.2354 159.539 34.7052C159.538 32.6757 159.542 30.6462 159.552 28.6167C159.564 25.8452 159.558 23.0743 159.548 20.3028L159.571 17.8715C159.53 12.8658 158.765 9.38148 156.385 4.94609C152.08 0.968155 149.276 -0.0778198 143.533 0.00488281C139.02 0.543503 136.52 3.05511 133.715 6.40907C131.443 10.5861 131.439 13.7329 131.487 18.4053L131.469 21.0611C131.454 23.9886 131.466 26.9155 131.478 29.843V29.8439V29.8449V29.8459V29.8468V29.8478L131.478 29.8587C131.473 31.9629 131.466 34.067 131.458 36.1711C131.441 41.8837 131.448 47.596 131.46 53.3086C131.468 58.4659 131.462 63.6231 131.457 68.7804L131.454 71.2389C131.447 81.9191 131.459 92.5991 131.478 103.279C131.495 112.959 131.492 122.639 131.474 132.319C131.454 143.565 131.447 154.811 131.458 166.057C131.464 172.008 131.465 177.959 131.452 183.91C131.441 189.505 131.449 195.1 131.471 200.695C131.476 202.749 131.474 204.803 131.466 206.857C131.456 209.659 131.468 212.461 131.487 215.264L131.462 217.73C131.527 222.781 132.374 225.638 135.721 229.659C140.564 233.902 145.821 234.537 151.865 232.292ZM105.663 207.189C110.24 204.908 112.568 202.237 115.056 197.826C115.279 196.298 115.396 195.495 115.458 194.688C115.526 193.795 115.526 192.896 115.526 191.005V191.005V191.004V191.004V191.004V191.003L115.542 188.985C115.555 186.764 115.541 184.543 115.527 182.322C115.53 180.725 115.536 179.129 115.542 177.532C115.555 173.202 115.545 168.873 115.529 164.544C115.518 160.584 115.521 156.625 115.524 152.665L115.526 150.943C115.528 143.331 115.516 135.718 115.494 128.105C115.469 119.307 115.467 110.509 115.478 101.711C115.488 93.2436 115.482 84.7759 115.469 76.3082C115.464 72.7064 115.464 69.1048 115.468 65.503C115.473 61.2607 115.463 57.0187 115.443 52.7764C115.438 51.2206 115.437 49.6648 115.442 48.109C115.448 45.983 115.436 43.8578 115.42 41.7319L115.413 38.1291C114.873 33.2659 113.405 30.2702 109.655 27.1262C106.215 25.3459 103.904 24.6776 100.027 24.6098C95.6765 26.0065 92.5535 27.576 89.6952 31.164C87.7747 35.0126 87.5788 38.2125 87.5718 42.4845L87.5609 44.4775C87.5512 46.6754 87.555 48.8732 87.5587 51.0712C87.5546 52.6494 87.5497 54.2276 87.5441 55.8058C87.5316 60.0888 87.531 64.3717 87.5334 68.6547C87.5344 72.1782 87.53 75.7016 87.5255 79.2251L87.5253 79.3837C87.5149 87.821 87.5145 96.2583 87.5202 104.696C87.5258 113.398 87.5143 122.101 87.4943 130.804C87.4777 138.278 87.4721 145.752 87.4752 153.225C87.4769 157.688 87.4744 162.151 87.4613 166.614C87.4495 170.811 87.4513 175.008 87.4636 179.205C87.4658 180.744 87.4632 182.283 87.4555 183.822C87.4457 185.926 87.4533 188.028 87.4652 190.132L87.4647 193.697C87.9852 198.419 89.4954 201.457 92.9827 204.673C96.9898 207.369 100.931 207.825 105.663 207.189ZM246.555 187.525C244.543 192.29 242.887 194.674 238.101 196.888C233.267 197.656 228.518 198.007 224.482 194.899C221.45 191.423 219.534 188.369 218.966 183.742L218.971 180.672C218.963 178.859 218.955 177.047 218.967 175.235C218.977 173.91 218.981 172.585 218.98 171.261C218.972 167.646 218.974 164.032 218.989 160.418C219.006 156.577 219.012 152.735 219.012 148.894C219.014 142.462 219.023 136.03 219.044 129.598C219.071 121.277 219.087 112.957 219.091 104.636C219.095 97.4273 219.104 90.2184 219.117 83.0095C219.121 80.7056 219.125 78.4017 219.128 76.0978C219.132 72.4105 219.138 68.7233 219.15 65.036C219.155 63.6795 219.16 62.3229 219.164 60.9664L219.166 59.2011L219.168 57.0972L219.184 53.5768C219.195 49.6567 219.267 46.8135 221.37 43.3931C224.152 40.2384 226.709 38.0074 230.998 37.3839C235.604 37.2404 239.257 37.3077 242.798 40.5257L242.798 40.5259L242.798 40.5261L242.798 40.5262L242.798 40.5264C244.411 42.6053 245.423 43.9093 246.053 45.3772C247.114 47.8474 247.094 50.7815 247.04 58.6525C247.031 59.989 247.028 61.3255 247.031 62.662C247.049 66.3118 247.053 69.9612 247.038 73.611C247.022 77.4915 247.02 81.3719 247.023 85.2525C247.028 91.7555 247.022 98.2585 247.001 104.761C246.976 112.327 246.963 119.892 246.974 127.457C246.984 134.798 246.986 142.138 246.973 149.479L246.973 149.528C246.967 152.623 246.961 155.717 246.964 158.812C246.969 162.534 246.971 166.255 246.954 169.978C246.946 171.351 246.94 172.725 246.934 174.099C246.939 175.395 246.943 176.691 246.947 177.986L246.919 181.562C246.915 183.164 246.914 183.938 246.863 184.708C246.816 185.426 246.727 186.142 246.555 187.525L246.555 187.525ZM193.019 166.927C196.411 165.737 198.925 164.036 201.163 161.179C202.769 157.734 202.814 154.647 202.791 150.924L202.811 148.652C202.828 146.181 202.825 143.711 202.819 141.24C202.824 139.518 202.829 137.796 202.834 136.074C202.843 132.467 202.84 128.86 202.831 125.253C202.82 120.636 202.839 116.02 202.867 111.403C202.884 107.847 202.884 104.291 202.878 100.735C202.878 99.0334 202.884 97.3315 202.895 95.6297C202.909 93.2474 202.899 90.8663 202.883 88.4839L202.911 86.3654C202.843 81.5698 201.654 78.8797 198.655 75.1688C194.986 71.8443 190.959 71.7726 186.191 71.9137C182.749 72.5125 180.866 73.8097 178.31 76.1088C175.166 80.7776 174.935 86.1387 174.915 91.6033L174.901 93.6453C174.888 95.8535 174.888 98.0615 174.891 100.27C174.887 101.817 174.883 103.364 174.878 104.911C174.871 108.147 174.872 111.382 174.877 114.617C174.882 118.749 174.866 122.88 174.844 127.011C174.83 130.204 174.83 133.397 174.833 136.59C174.832 138.113 174.827 139.635 174.818 141.158C174.763 151.238 174.745 154.525 175.735 157.473C176.214 158.899 176.929 160.246 177.991 162.245L177.991 162.245C182.793 166.798 186.547 167.687 193.019 166.927ZM70.9147 136.03C68.9414 140.29 66.7133 142.376 62.4613 144.457C57.2572 145.205 52.4726 145.254 48.3722 141.648C44.9081 137.534 44.175 134.558 44.1172 129.375L44.1492 126.839C44.1464 125.043 44.1458 123.248 44.1473 121.453C44.1771 118.64 44.2042 115.828 44.1962 113.015C44.1882 111.171 44.1869 109.327 44.1929 107.483L44.2079 104.836C44.1978 101.787 44.1962 98.7917 44.6151 95.7687C46.5804 91.5134 48.8432 89.448 53.0686 87.342C58.3318 86.4958 62.7176 87.063 67.1577 90.1509C70.6514 94.2312 71.3551 97.2531 71.4127 102.424L71.3807 104.96C71.3835 106.755 71.3841 108.55 71.3826 110.345C71.3527 113.159 71.3257 115.97 71.3337 118.784C71.3417 120.628 71.343 122.472 71.3369 124.315L71.322 126.963C71.332 130.011 71.334 133.007 70.9147 136.03ZM280.372 139.774C284.776 138.171 287.191 136.181 289.765 132.284C290.94 128.576 290.938 124.826 290.937 120.997C290.936 120.45 290.936 119.901 290.939 119.351L290.998 116.862C291.036 110.565 290.194 105.989 286.008 101.035C282.515 98.2056 278.895 98.2547 274.618 98.3126L274.275 98.3172C270.748 98.706 268.862 99.94 266.283 102.322C262.93 107.212 263.007 112.178 263.093 117.764C263.1 118.249 263.108 118.739 263.113 119.234L263.08 122.286L263.091 125.236L263.101 127.906C263.707 132.067 265.57 134.468 268.69 137.199C272.554 139.964 275.691 140.253 280.372 139.774ZM27.3214 129.343C26.1627 133.535 23.9969 136.295 20.4273 138.721C14.5552 140.747 9.44089 140.628 4.22489 136.965C0.534904 132.047 0.00380974 128.209 0 122.121L0.05687 119.117C0.0539087 118.674 0.0494166 118.236 0.044965 117.802C-0.0125738 112.188 -0.0633483 107.234 3.28562 102.322C5.86393 99.9397 7.75021 98.7057 11.2768 98.3169C11.3918 98.3154 11.5064 98.3138 11.6205 98.3123C15.897 98.2543 19.5173 98.2052 23.0103 101.034C26.9761 105.729 28.0406 110.169 28.0002 116.151L27.9415 118.356C27.9171 122.06 27.8496 125.673 27.3214 129.343Z" fill="#FAFAFA"/>
</svg>
