<svg width="24" height="24" viewBox="0 0 24 24" fill="none" xmlns="http://www.w3.org/2000/svg">
<path d="M3.99924 13.9975C3.81006 13.9982 3.62457 13.9451 3.46434 13.8445C3.3041 13.744 3.17569 13.6 3.09403 13.4293C3.01237 13.2587 2.9808 13.0684 3.003 12.8805C3.0252 12.6926 3.10026 12.5149 3.21945 12.368L13.1169 2.17061C13.1911 2.08491 13.2923 2.027 13.4038 2.00638C13.5153 1.98576 13.6305 2.00366 13.7304 2.05714C13.8304 2.11062 13.9092 2.1965 13.954 2.30068C13.9987 2.40486 14.0067 2.52116 13.9766 2.63049L12.0571 8.64892C12.0005 8.8004 11.9815 8.96336 12.0018 9.1238C12.022 9.28425 12.0808 9.4374 12.1732 9.57011C12.2656 9.70282 12.3888 9.81113 12.5323 9.88576C12.6758 9.96038 12.8352 9.99909 12.9969 9.99857H19.9951C20.1843 9.99792 20.3697 10.051 20.53 10.1516C20.6902 10.2521 20.8186 10.3961 20.9003 10.5668C20.982 10.7374 21.0135 10.9277 20.9913 11.1156C20.9691 11.3035 20.8941 11.4812 20.7749 11.6281L10.8775 21.8255C10.8032 21.9112 10.702 21.9691 10.5905 21.9897C10.4791 22.0103 10.3639 21.9924 10.2639 21.939C10.1639 21.8855 10.0851 21.7996 10.0403 21.6954C9.9956 21.5912 9.98761 21.4749 10.0177 21.3656L11.9372 15.3472C11.9938 15.1957 12.0128 15.0327 11.9926 14.8723C11.9724 14.7118 11.9135 14.5587 11.8211 14.426C11.7287 14.2933 11.6055 14.185 11.462 14.1103C11.3186 14.0357 11.1591 13.997 10.9974 13.9975H3.99924Z" stroke="#FC5000" stroke-linecap="round" stroke-linejoin="round"/>
</svg>
