<svg width="20" height="20" viewBox="0 0 20 20" fill="none" xmlns="http://www.w3.org/2000/svg">
<path d="M9.16797 14.1666L10.8346 15.8333C10.9988 15.9974 11.1937 16.1276 11.4081 16.2165C11.6226 16.3053 11.8525 16.351 12.0846 16.351C12.3168 16.351 12.5467 16.3053 12.7611 16.2165C12.9756 16.1276 13.1705 15.9974 13.3346 15.8333C13.4988 15.6691 13.629 15.4742 13.7178 15.2598C13.8067 15.0453 13.8524 14.8154 13.8524 14.5833C13.8524 14.3511 13.8067 14.1212 13.7178 13.9068C13.629 13.6923 13.4988 13.4974 13.3346 13.3333M11.668 11.6666L13.7513 13.7499C14.0828 14.0815 14.5325 14.2677 15.0013 14.2677C15.4701 14.2677 15.9198 14.0815 16.2513 13.7499C16.5828 13.4184 16.7691 12.9688 16.7691 12.4999C16.7691 12.0311 16.5828 11.5815 16.2513 11.2499L13.018 8.0166C12.5492 7.54843 11.9138 7.28546 11.2513 7.28546C10.5888 7.28546 9.95339 7.54843 9.48464 8.0166L8.7513 8.74993C8.41978 9.08145 7.97014 9.2677 7.5013 9.2677C7.03246 9.2677 6.58282 9.08145 6.2513 8.74993C5.91978 8.41841 5.73354 7.96877 5.73354 7.49993C5.73354 7.03109 5.91978 6.58145 6.2513 6.24993L8.59297 3.90826C9.35317 3.15005 10.3445 2.66706 11.4102 2.53574C12.4758 2.40443 13.5548 2.63229 14.4763 3.18326L14.868 3.4166C15.2228 3.63075 15.6447 3.70503 16.0513 3.62493L17.5013 3.33326M17.5013 2.49993L18.3346 11.6666H16.668M2.5013 2.49993L1.66797 11.6666L7.08464 17.0833C7.41616 17.4148 7.86579 17.601 8.33464 17.601C8.80348 17.601 9.25311 17.4148 9.58464 17.0833C9.91616 16.7517 10.1024 16.3021 10.1024 15.8333C10.1024 15.3644 9.91616 14.9148 9.58464 14.5833M2.5013 3.33326H9.16797" stroke="#22262C" stroke-linecap="round" stroke-linejoin="round"/>
</svg>
