<svg width="20" height="20" viewBox="0 0 20 20" fill="none" xmlns="http://www.w3.org/2000/svg">
<path d="M11.9187 10.0212L4.18068 17.7592C3.81302 18.1269 3.31437 18.3334 2.79443 18.3334C2.27449 18.3334 1.77584 18.1269 1.40819 17.7592C1.04053 17.3916 0.833984 16.8929 0.833984 16.373C0.833984 15.853 1.04053 15.3544 1.40819 14.9867L9.14621 7.2487M14.6912 12.7937L18.3878 9.09702M17.9258 9.55911L16.1569 7.79026C15.8103 7.44371 15.6155 6.97366 15.6154 6.48349V5.40037L13.5267 3.31176C12.4959 2.28149 11.1008 1.6985 9.64341 1.68893L6.37372 1.66675L7.22395 2.42456C7.82785 2.96002 8.31141 3.61738 8.64274 4.35333C8.97408 5.08928 9.14567 5.8871 9.14621 6.6942V8.17286L10.9945 10.0212H12.0777C12.5678 10.0213 13.0379 10.2161 13.3844 10.5627L15.1533 12.3316" stroke="#22262C" stroke-linecap="round" stroke-linejoin="round"/>
</svg>
