<svg width="20" height="20" viewBox="0 0 20 20" fill="none" xmlns="http://www.w3.org/2000/svg">
<path d="M6.2037 9.90741V13.6111C6.2037 14.1023 6.39881 14.5733 6.7461 14.9206C7.09339 15.2679 7.56441 15.463 8.05556 15.463H11.7593M4.35185 2.5H8.05556C9.0783 2.5 9.90741 3.3291 9.90741 4.35185V8.05556C9.90741 9.0783 9.0783 9.90741 8.05556 9.90741H4.35185C3.3291 9.90741 2.5 9.0783 2.5 8.05556V4.35185C2.5 3.3291 3.3291 2.5 4.35185 2.5ZM13.6111 11.7593H17.3148C18.3376 11.7593 19.1667 12.5884 19.1667 13.6111V17.3148C19.1667 18.3376 18.3376 19.1667 17.3148 19.1667H13.6111C12.5884 19.1667 11.7593 18.3376 11.7593 17.3148V13.6111C11.7593 12.5884 12.5884 11.7593 13.6111 11.7593Z" stroke="#22262C" stroke-linecap="round" stroke-linejoin="round"/>
</svg>
