<svg width="20" height="20" viewBox="0 0 20 20" fill="none" xmlns="http://www.w3.org/2000/svg">
<path d="M1.96361 10.0001H7.77843L8.24139 9.07416L10.0932 13.2408L11.9451 6.75934L13.334 10.0001H18.2136M16.5747 11.8519C17.9544 10.5001 19.3525 8.87971 19.3525 6.75934C19.3525 5.4087 18.816 4.11338 17.8609 3.15833C16.9059 2.20329 15.6105 1.66675 14.2599 1.66675C12.6303 1.66675 11.4821 2.12971 10.0932 3.5186C8.70435 2.12971 7.55621 1.66675 5.92658 1.66675C4.57594 1.66675 3.28062 2.20329 2.32557 3.15833C1.37052 4.11338 0.833984 5.4087 0.833984 6.75934C0.833984 8.88897 2.22287 10.5093 3.61176 11.8519L10.0932 18.3334L16.5747 11.8519Z" stroke="#22262C" stroke-linecap="round" stroke-linejoin="round"/>
</svg>
