<svg width="20" height="20" viewBox="0 0 20 20" fill="none" xmlns="http://www.w3.org/2000/svg">
<path d="M13.7969 18.3334V3.5186C13.7969 3.02746 13.6018 2.55643 13.2546 2.20914C12.9073 1.86185 12.4362 1.66675 11.9451 1.66675H8.24139C7.75025 1.66675 7.27922 1.86185 6.93194 2.20914C6.58465 2.55643 6.38954 3.02746 6.38954 3.5186V18.3334M2.68584 5.37045H17.5007C18.5234 5.37045 19.3525 6.19955 19.3525 7.2223V16.4816C19.3525 17.5043 18.5234 18.3334 17.5007 18.3334H2.68584C1.66309 18.3334 0.833984 17.5043 0.833984 16.4816V7.2223C0.833984 6.19955 1.66309 5.37045 2.68584 5.37045Z" stroke="#22262C" stroke-linecap="round" stroke-linejoin="round"/>
</svg>
