<svg width="20" height="20" viewBox="0 0 20 20" fill="none" xmlns="http://www.w3.org/2000/svg">
<path d="M16.6654 8.33341C16.6654 12.4942 12.0495 16.8276 10.4995 18.1659C10.3551 18.2745 10.1794 18.3332 9.9987 18.3332C9.81803 18.3332 9.64226 18.2745 9.49786 18.1659C7.94786 16.8276 3.33203 12.4942 3.33203 8.33341C3.33203 6.5653 4.03441 4.86961 5.28465 3.61937C6.5349 2.36913 8.23059 1.66675 9.9987 1.66675C11.7668 1.66675 13.4625 2.36913 14.7127 3.61937C15.963 4.86961 16.6654 6.5653 16.6654 8.33341Z" stroke="#22262C" stroke-linecap="round" stroke-linejoin="round"/>
<path d="M9.9987 10.8334C11.3794 10.8334 12.4987 9.71413 12.4987 8.33341C12.4987 6.9527 11.3794 5.83341 9.9987 5.83341C8.61799 5.83341 7.4987 6.9527 7.4987 8.33341C7.4987 9.71413 8.61799 10.8334 9.9987 10.8334Z" stroke="#22262C" stroke-linecap="round" stroke-linejoin="round"/>
</svg>
