<svg width="20" height="20" viewBox="0 0 20 20" fill="none" xmlns="http://www.w3.org/2000/svg">
<path d="M1.66602 5.83342L5.34102 2.15842C5.49606 2.00244 5.68045 1.8787 5.88354 1.79431C6.08664 1.70993 6.30442 1.66657 6.52435 1.66675H13.4743C13.6943 1.66657 13.9121 1.70993 14.1152 1.79431C14.3182 1.8787 14.5026 2.00244 14.6577 2.15842L18.3327 5.83342M1.66602 5.83342H18.3327M1.66602 5.83342V8.33342C1.66602 8.77544 1.84161 9.19937 2.15417 9.51193C2.46673 9.82449 2.89065 10.0001 3.33268 10.0001M18.3327 5.83342V8.33342C18.3327 8.77544 18.1571 9.19937 17.8445 9.51193C17.532 9.82449 17.108 10.0001 16.666 10.0001M3.33268 10.0001V16.6667C3.33268 17.1088 3.50828 17.5327 3.82084 17.8453C4.1334 18.1578 4.55732 18.3334 4.99935 18.3334H14.9993C15.4414 18.3334 15.8653 18.1578 16.1779 17.8453C16.4904 17.5327 16.666 17.1088 16.666 16.6667V10.0001M3.33268 10.0001C3.81957 9.97328 4.28457 9.78904 4.65768 9.47508C4.75712 9.40323 4.87667 9.36455 4.99935 9.36455C5.12203 9.36455 5.24158 9.40323 5.34102 9.47508C5.71412 9.78904 6.17913 9.97328 6.66602 10.0001C7.1529 9.97328 7.61791 9.78904 7.99102 9.47508C8.09045 9.40323 8.21 9.36455 8.33268 9.36455C8.45536 9.36455 8.57492 9.40323 8.67435 9.47508C9.04746 9.78904 9.51246 9.97328 9.99935 10.0001C10.4862 9.97328 10.9512 9.78904 11.3243 9.47508C11.4238 9.40323 11.5433 9.36455 11.666 9.36455C11.7887 9.36455 11.9082 9.40323 12.0077 9.47508C12.3808 9.78904 12.8458 9.97328 13.3327 10.0001C13.8196 9.97328 14.2846 9.78904 14.6577 9.47508C14.7571 9.40323 14.8767 9.36455 14.9993 9.36455C15.122 9.36455 15.2416 9.40323 15.341 9.47508C15.7141 9.78904 16.1791 9.97328 16.666 10.0001M12.4993 18.3334V15.0001C12.4993 14.5581 12.3238 14.1341 12.0112 13.8216C11.6986 13.509 11.2747 13.3334 10.8327 13.3334H9.16602C8.72399 13.3334 8.30007 13.509 7.9875 13.8216C7.67494 14.1341 7.49935 14.5581 7.49935 15.0001V18.3334" stroke="#22262C" stroke-linecap="round" stroke-linejoin="round"/>
</svg>
