<svg width="20" height="20" viewBox="0 0 20 20" fill="none" xmlns="http://www.w3.org/2000/svg">
<path d="M5.83464 16.6667H3.33464C2.89261 16.6667 2.46868 16.4912 2.15612 16.1786C1.84356 15.866 1.66797 15.4421 1.66797 15.0001V4.16675C1.66797 3.72472 1.84356 3.3008 2.15612 2.98824C2.46868 2.67567 2.89261 2.50008 3.33464 2.50008H6.58464C6.86337 2.49735 7.13835 2.56457 7.38438 2.6956C7.63042 2.82662 7.83967 3.01727 7.99297 3.25008L8.66797 4.25008C8.81973 4.48052 9.02632 4.66968 9.26922 4.80058C9.51212 4.93149 9.78371 5.00003 10.0596 5.00008H16.668C17.11 5.00008 17.5339 5.17567 17.8465 5.48824C18.159 5.8008 18.3346 6.22472 18.3346 6.66675M13.3346 11.6667V13.3334L14.168 14.1667M18.3346 13.3334C18.3346 16.0948 16.0961 18.3334 13.3346 18.3334C10.5732 18.3334 8.33464 16.0948 8.33464 13.3334C8.33464 10.572 10.5732 8.33341 13.3346 8.33341C16.0961 8.33341 18.3346 10.572 18.3346 13.3334Z" stroke="#22262C" stroke-linecap="round" stroke-linejoin="round"/>
</svg>
