<svg width="20" height="20" viewBox="0 0 20 20" fill="none" xmlns="http://www.w3.org/2000/svg">
<path d="M15.8327 14.1666H17.4993C17.9993 14.1666 18.3327 13.8333 18.3327 13.3333V10.8333C18.3327 10.0833 17.7493 9.41659 17.0827 9.24992C15.5827 8.83325 13.3327 8.33325 13.3327 8.33325C13.3327 8.33325 12.2493 7.16659 11.4993 6.41659C11.0827 6.08325 10.5827 5.83325 9.99935 5.83325H4.16602C3.66602 5.83325 3.24935 6.16659 2.99935 6.58325L1.83268 8.99992C1.72233 9.32177 1.66602 9.65967 1.66602 9.99992V13.3333C1.66602 13.8333 1.99935 14.1666 2.49935 14.1666H4.16602M15.8327 14.1666C15.8327 15.0871 15.0865 15.8333 14.166 15.8333C13.2455 15.8333 12.4993 15.0871 12.4993 14.1666M15.8327 14.1666C15.8327 13.2461 15.0865 12.4999 14.166 12.4999C13.2455 12.4999 12.4993 13.2461 12.4993 14.1666M4.16602 14.1666C4.16602 15.0871 4.91221 15.8333 5.83268 15.8333C6.75316 15.8333 7.49935 15.0871 7.49935 14.1666M4.16602 14.1666C4.16602 13.2461 4.91221 12.4999 5.83268 12.4999C6.75316 12.4999 7.49935 13.2461 7.49935 14.1666M7.49935 14.1666H12.4993" stroke="#22262C" stroke-linecap="round" stroke-linejoin="round"/>
</svg>
